<?xml version="1.0" encoding="utf-8"?>
<svg id="master-artboard" viewBox="0 0 1400 980" version="1.1" xmlns="http://www.w3.org/2000/svg" x="0px" y="0px" enable-background="new 0 0 1400 980" width="1400px" height="980px">
<g transform="matrix(3.320197582244873, 0, 0, 3.320197582244873, 46.18324299042928, -101.12575159165017)">
	<path fill-rule="evenodd" clip-rule="evenodd" fill="#5B5B5F" d="M221.5,184.1c-5.1-4.5-13-2.1-19.7-4.1c-1.3-7.7,0-15.1,0.2-22.6&#10;&#9;&#9;c0-0.9,0.7-1.9,0.5-2.7c-1-6.6-2-13.1-3.1-19.7c-0.1-0.5-0.4-1.2-0.2-1.4c5-5.7-0.2-11.6,0.3-17.4c2-21.7-2-43.2-2.7-64.8&#10;&#9;&#9;c-0.2-4.7-2.6-9.4,1.5-14.4c10.1-0.5,20.3,1.2,30.1,6.2c7.5,3.8,15.2,7.1,22.8,10.8c7.1,3.4,14.7,6,20.6,11.7&#10;&#9;&#9;c2.4,2.3,6.1,3.1,8.6,5.2c7.8,6.4,15.5,13.1,23,19.8c5.4,4.8,10.6,9.9,15.9,14.8c9.7,8.8,13.6,20.6,16.8,32.6&#10;&#9;&#9;c1.3,4.7,0.2,10,4,14.1c-2,11.3,4.9,22.2,1.3,34.5c-8.3-0.4-16.9-0.8-25.5-1.1c-1.7-0.1-3.4-0.2-5.1-0.3&#10;&#9;&#9;c-10.6-0.6-21.2-1.2-31.9-2.2c-12.9-1.2-26-0.5-39-0.6c-3.1,0-5.9,0.4-9.1-0.7C228.7,180.8,225.5,182.9,221.5,184.1z" style="fill: rgb(246, 205, 97);"/>
	<path fill-rule="evenodd" clip-rule="evenodd" fill="#5B5B5F" d="M180.6,262.4c0.7,5.5,1.9,11.7,2,17.9c0.1,7-0.7,14.1-1.2,21.1&#10;&#9;&#9;c-0.8,11.1,0,22.1,2.1,33c0.9,4.5-1.3,7-6.1,6.2c-8.3-1.5-16.5-3.4-24.7-5.2c-4-0.9-8-1.8-11.9-3.1c-8.2-2.7-16.6-5.2-24.5-8.7&#10;&#9;&#9;c-7.7-3.4-15-7.7-22.4-11.9c-2.2-1.3-4-3.3-5.8-5.1c-6.1-6.1-12.2-12.1-18.1-18.3c-3-3.2-6.1-6.7-8.3-10.5&#10;&#9;&#9;c-4.2-7-8.2-14.2-11.5-21.6c-2.6-5.9-4.7-12.3-5.9-18.6c-1.8-9.9-3.1-19.9-2.5-30c0.3-5.6,1.5-7,7.5-7.2c8.2-0.3,16.3-0.3,24.5-0.5&#10;&#9;&#9;c1.8-0.1,4.6,1.9,5.1-1.9c0.8,0.6,1.8,1.9,2.5,1.8c11.6-1.6,23.1,0.7,34.6,0.8c9.7,0.1,19.4,1.4,29,0.6c10.3-0.8,20.5,0.2,30.7,0.7&#10;&#9;&#9;c4.2,0.2,6.6,2.4,5.3,5.6c-1.5,4-1.1,8,0.1,11.3c1.8,5-3.2,10.5,1.5,14.9c0.1,0.1,0,0.4-0.1,0.5&#10;&#9;&#9;C176.8,243.2,182.8,252.6,180.6,262.4z" style="fill: rgb(246, 205, 97);"/>
	<path fill-rule="evenodd" clip-rule="evenodd" fill="#5B5B5F" d="M205.9,342.5c-2.5-4.7-4.7-9.1-3.1-14.6c0.4-1.3,0.3-3-0.1-4.3&#10;&#9;&#9;c-2.4-7.2-0.2-14.7-1.9-22c-0.2-0.9-0.2-1.9,0.1-2.7c2.9-6.8,1.9-13.7-0.3-20.3c-1.5-4.3,1.3-8,0.6-12.2c-0.8-4.9-1-9.9-1.1-14.9&#10;&#9;&#9;c-0.1-5.4,0.2-10.8,0.3-16.2c0.2-8.8,0.3-17.7,0.5-26.5c0.1-2.4,0.4-4.7,0.7-7.4c7.7-0.4,15-0.9,22.2-1c11.3-0.2,22.7-1,33.8,0.2&#10;&#9;&#9;c9.3,1,18.6,0.3,27.9,2.5c8.6,2,17.8,1.7,26.7,2.2c8.2,0.5,16.4,0.7,24.6,1.2c3.8,0.2,4.1,1.4,4.2,5.7c0.4,11.1-4.1,20.6-8.9,30&#10;&#9;&#9;c-3.3,6.4-7.6,12.3-10.8,18.7c-5,9.8-13,17.8-16.9,28.3c-0.2,0.6-0.9,1.1-1.4,1.5c-5.6,3.7-8.4,9.7-12.5,14.6&#10;&#9;&#9;c-7.4,8.7-15.9,16.1-26,21.5c-5.5,3-11.4,5.3-17.2,7.7c-1.3,0.6-2.7,0.7-4.1,1c-3.1,0.7-6.4,0.8-9.2,2&#10;&#9;&#9;C225.2,341.4,216.2,343.2,205.9,342.5z" style="fill: rgb(246, 205, 97);"/>
	<path fill-rule="evenodd" clip-rule="evenodd" fill="#5B5B5F" d="M174.9,39.7c1,8.2,2.1,15.9,2.8,23.6c0.5,5.5,0.4,11,0.7,16.5&#10;&#9;&#9;c0.3,5.8,0.7,11.5,1.4,17.2c0.3,2.8,1.1,5.5,1.7,8.2c0.1,0.7,0.6,1.4,0.6,2.1c-0.3,7.7-1.2,15.4-0.8,23c0.4,9-0.4,17.9,1.5,26.9&#10;&#9;&#9;c1.1,5.3-0.5,11.3-0.9,17c-0.1,1.9-0.4,3.8-0.6,6.8c-6.3,0.3-13,0.8-19.6,0.8c-4.3,0.1-8.7-0.7-13-0.6c-2.8,0.1-5.6,1.4-8.4,1.4&#10;&#9;&#9;c-8,0.1-15.9-0.2-23.9-0.5c-4.3-0.1-8.5-0.4-12.8-0.8c-1.8-0.2-3.6-0.8-5.5-1.2c-1.9-0.3-3.8-1-5.6-0.7c-10.9,1.8-21.8,1.5-32.8,0&#10;&#9;&#9;c-1.6-0.2-3.3,0.4-4.9,0.5c-3.8,0.1-7.6,0-11.7,0c-1.6-8,1.1-14.8,3-21.8c3.3-12.8,7.7-25.2,11.9-37.7c1.2-3.6,3.5-6.8,5.4-10.2&#10;&#9;&#9;c5.5-9.5,14.3-16.1,21.1-24.4c1.9-2.3,4.5-4.2,6.9-6c5.2-3.8,10.4-7.8,15.9-11c11.9-7,23.6-14.4,36.2-20&#10;&#9;&#9;C153.2,44.5,163.6,41.1,174.9,39.7z" style="fill: rgb(246, 205, 97);"/>
</g></svg>
