<?xml version="1.0" encoding="utf-8"?>
<svg id="master-artboard" viewBox="0 0 1400 980" version="1.1" xmlns="http://www.w3.org/2000/svg" x="0px" y="0px" enable-background="new 0 0 1400 980" width="1400px" height="980px">
<path fill-rule="evenodd" clip-rule="evenodd" fill="#5B5B5F" d="M984.9,579.6c-9.7,0.9-19.4,4.3-30.2,2.5&#10;&#9;c-4.9-0.8-10.2,0.5-15.4-0.5c-3.7-0.7-7.5-0.5-10.8-2.6c-1.2-0.8-3.5-1.2-4.9-0.8c-5.6,1.5-10.8,0.2-16.3-0.6c-3.8-0.6-8-2.8-12-0.2&#10;&#9;c-4.4-1.8-9.4-1.5-14.1-2.1c-2.2-0.3-4.5-1.8-6.8,0.2c-2.1,1.8-3.2-1.6-5.2-0.9c-1.2,0.4-2.5,0.7-3.8,1c-0.9,0.3-2.3,1-2.8,0.7&#10;&#9;c-6.5-3.7-14.1-0.1-20.9-2.7c-2.9-1.1-6.8-1-10.2-0.6c-15.9,1.8-31.7,0.5-47.6-0.2c-10.6-0.4-21-2.4-31.8-0.7&#10;&#9;c-5.3,0.9-11.1,0.4-16.6-0.2c-7.2-0.8-14.2-0.8-21.3,0.1c-3.7,0.5-7.6,0.3-11.4,0.4c-21.8,0.7-43.6,1.4-65.4,2&#10;&#9;c-4.5,0.1-8.9-0.2-13.5-0.3c-2.1-4.4-1.1-8.4-0.7-12.3c0.4-4,2.7-7.9,0.6-12.6c-3.9-0.6-8.2-1.2-13-1.9c-0.2-2.2-0.8-4.2-0.4-6.1&#10;&#9;c2.5-12.6,2-25.5,5.5-38.1c7.8-3.2,16.4-2.5,24.7-4.6c3.4-3.8,2.5-8.7,2.9-13.2c0.5-4.5,2.8-9,1-13.9c-10.3-1.8-21,0.9-31.2-2.2&#10;&#9;c-3.3-7.5,0-15,0.2-22.3c0.2-7.5,1.6-14.9,2.5-22.6c2.4-0.6,4.3-1.3,6.3-1.4c8.6-0.5,17.3-0.9,25.9-1.3c2.8-0.1,5.5-0.3,8.3-0.6&#10;&#9;c5.6-0.7,6.2-1.4,6.7-6.1c0.8-7.2,1.6-14.4,2.5-21.6c0.1-1.2,0.2-2.3,0.5-3.4c0.8-3,3.1-4.4,6.7-4.1c1.4,0.1,2.7,0.4,4.1,0.5&#10;&#9;c5.2,0.3,10.4,0.8,15.6,0.9c17.6,0.1,35.3,0.3,53,0c21.1-0.4,42.2-1.6,63.3-2.2c28.7-0.8,57.4-2.1,86.1,0.6&#10;&#9;c15.1,1.4,30.2,3,46.2,4.7c0.4,1.4,1.4,3.3,1.3,5.1c-0.6,5.8-1.7,11.5-2.5,17.3c-0.4,2.8-0.4,5.7-0.5,8.6c3.9,1.9,7.7,2,11.4,2.7&#10;&#9;c4.8,0.9,6.4,2.6,5.9,6.7c-0.6,4.9-0.6,10-2.4,14.6c-1.8,4.5-1.3,9-2.8,13.9c8,1.1,15.5,2.1,22.9,3.3c3.7,0.6,7.5,1.2,11.1,2.1&#10;&#9;c3.1,0.7,4.4,2.7,4.3,5.3c-0.1,1.7-0.5,3.4-0.8,5.2c-1.4,6.6-2.8,13.1-4.2,19.6c-1,4.5-2.3,8.9-5.1,13.1c-2.5,3.9-5.6,6.5-10.9,7.1&#10;&#9;c-1.3,0.2-2.6,0.8-3.8,1.2c-3.6,5-2.8,10.8-4.6,16c-0.9,2.7,0.9,4.5,4.3,4.7c7.2,0.5,14.5,0.8,21.8,1.1c2.1,0.1,4.2-0.1,6.2,0&#10;&#9;c3.4,0.3,5.9,2.4,5.5,5.3c-1,7.5-2.3,14.9-3.7,22.3c-0.3,1.4-1.4,2.6-2.3,3.9C990.1,572.6,987.6,575.8,984.9,579.6z" style="stroke: rgb(246, 205, 97); fill: rgb(254, 138, 113);" transform="matrix(3.598266839981079, 0, 0, 3.598266839981079, -2194.05224609375, -1247.1918313845842)"/></svg>
