<?xml version="1.0" encoding="utf-8"?>
<svg id="master-artboard" viewBox="0 0 1400 980" version="1.1" xmlns="http://www.w3.org/2000/svg" x="0px" y="0px" enable-background="new 0 0 1400 980" width="1400px" height="980px">
<g transform="matrix(3.2410948276519775, 0, 0, 3.2410948276519775, -990.9342380165863, -49.5342864027346)">
	<path fill-rule="evenodd" clip-rule="evenodd" fill="#5B5B5F" d="M518.2,34.1c0.2-1.2,0.4-2.2,0.6-3.5c6.4,0.4,12.8,0.5,19.1,1.2&#10;&#9;&#9;c2.8,0.3,5.6,1.7,8.3,2.8c4.1,1.7,8.3,3.1,12,5.3c4.6,2.8,10,2.7,14.5,5.1c2.5,1.3,4.8,2.8,7.2,4.3c1.8,1.1,3.6,2.4,5.5,3.6&#10;&#9;&#9;c2.1,1.4,4.3,2.6,6.3,4.1c3.4,2.5,7.3,3.8,11.3,4.8c0.6,0.1,1.5,0.2,1.7,0.5c1.4,3.4,5.2,3.7,7.4,6c1.9,1.9,3.7,3.8,5.5,5.7&#10;&#9;&#9;c0.5,0.5,1,1,1.6,1.5c1.8,1.3,3.7,2.5,5.3,4c4.8,4.7,9.3,9.5,14.1,14.2c3.1,3.1,5.9,6.4,8,10.5c3.6,7,7.9,13.6,11.4,20.6&#10;&#9;&#9;c1.7,3.5,2.1,7.6,3,11.5c0.2,0.9,0.5,1.7,0.7,2.6c2.7,9.1,2.7,18.7,4.9,27.8c1.5,6.4,1.5,12.9,2.2,19.4c0.4,3.3-0.2,6.7-0.3,10&#10;&#9;&#9;c-0.1,2.1-0.3,4.2-0.3,6.2c0,5-1.5,9.8-2.4,14.6c-1.4,8-4.8,15.2-7.5,22.7c-1.4,4-2.3,8.3-3.9,12.2c-1.9,4.8-4.6,9.3-6.4,14.1&#10;&#9;&#9;c-2.6,7.1-6.4,13.4-10.4,19.7c-2.4,3.8-5.8,7.1-8.9,10.4c-5.5,5.8-11,11.7-16.8,17.1c-4.9,4.5-10.4,8.3-16.5,11.3&#10;&#9;&#9;c-6.8,3.3-13.4,7-20.2,10.4c-9.5,4.7-19.4,8.1-29.9,9.8c-7.3,1.2-14.5,2.6-21.8,3.7c-2.4,0.4-4.9,0.4-7.4,0.4&#10;&#9;&#9;c-3.2,0-6.5,0.1-9.7-0.2c-5.3-0.5-10.7-0.8-15.9-1.9c-4.2-0.9-8.2-2.5-12.2-4.2c-7.6-3.3-14.9-7.3-22.7-10.1&#10;&#9;&#9;c-5.4-1.9-10.3-4.6-14.9-7.8c-4.2-3-8.1-6.4-12.2-9.6c-2.3-1.8-4.4-4.1-7-5.3c-3.6-1.7-5.9-4.6-8.5-7.1&#10;&#9;&#9;c-6.7-6.6-12.8-13.6-18.1-21.5c-4.1-6.2-8.8-12-12.9-18.1c-5-7.5-8.5-15.6-11.3-24.1c-0.9-2.7-2-5.3-2.9-8&#10;&#9;&#9;c-2.5-7.2-2.8-14.8-3.6-22.3c-0.5-4.4-1.1-8.9-1.8-13.3c-1.1-7.4-0.7-14.8-0.1-22.2c1.1-12.9,5.8-24.8,10.2-36.8&#10;&#9;&#9;c2.6-7.1,5.3-14.2,7.9-21.3c4.9-13.3,11.1-26,21.6-36c4.9-4.7,10.4-8.8,15.6-13.2c7-5.8,15.2-9.9,23.4-13.6&#10;&#9;&#9;c8.9-4,17.8-8.2,27.5-10.3c11.4-2.5,22.9-5,34.4-7.3c2.9-0.6,5.9-0.5,8.9-0.7C513.9,34,516,34.1,518.2,34.1z M372.5,190.3&#10;&#9;&#9;c1.4,6.9,0.5,16.5,4.9,25.4c1.9,3.9,2.3,8.7,4,13c2.3,5.6,3.5,11.6,5.6,17.3c2,5.7,4.8,11.2,6.6,17c2,6.7,6.4,11.7,11.1,16.4&#10;&#9;&#9;c5.1,5.2,11,9.6,15.7,15.1c3.7,4.3,7.9,8.1,12.3,11.5c3.5,2.8,7.7,4.9,11.5,7.3c4.1,2.6,8,5.6,12.3,7.9c9.7,5.2,20.4,7.9,30.9,11.1&#10;&#9;&#9;c2.8,0.9,5.6,2,8.5,2.5c12,2,24,3.8,36.3,2.4c6.4-0.8,12.8,0,19.3-2c7.4-2.3,14.3-5.5,21.5-7.9c1.5-0.5,3-1.3,4.3-2.1&#10;&#9;&#9;c3.8-2.6,7.5-5.3,11.3-7.8c6.8-4.5,13.4-9.3,19.4-14.9c1.5-1.4,3.3-2.7,4.5-4.3c7.1-9.9,14.1-19.8,21-29.8c1.5-2.2,2.4-4.7,3.4-7.2&#10;&#9;&#9;c1.8-4.9,3.1-9.9,5.1-14.7c3.3-7.7,5.9-15.5,7.2-23.8c1-6,2.5-12,2.8-18c0.5-9.2,0.2-18.5,0.2-27.7c0-1.6-0.3-3.3-0.8-4.8&#10;&#9;&#9;c-2.7-10-5.4-20-8.1-30c-1-3.6-1.4-7.4-2.9-10.6c-6.5-13.4-14.6-25.9-24.3-37.3c-8-9.4-16.9-17.5-27.6-23.6&#10;&#9;&#9;c-4.7-2.6-9.1-5.6-13.9-8.1c-4.9-2.5-9.9-4.7-15-6.8c-2.9-1.2-5.9-1.8-8.9-2.8c-10.2-3.4-20.4-6.3-31.3-6.5&#10;&#9;&#9;c-7.2-0.1-14.2,0.4-21.1,2c-7.5,1.7-14.9,4-22.2,6.3c-7.6,2.3-14.6,5.7-21.4,9.8c-6.7,4.1-13.7,7.8-20.9,11&#10;&#9;&#9;c-4.6,2-8.8,4.4-12.5,7.7c-9.9,8.9-18.1,19.1-24.2,31c-1.7,3.3-3.6,6.5-5.5,9.7c-2.5,4.4-5.5,8.6-7.4,13.2&#10;&#9;&#9;c-3.5,8.8-6.8,17.7-8.2,27.1c-0.3,2.3-0.7,4.7-1.4,6.9C373,176.7,372.2,182.3,372.5,190.3z" style="fill: rgb(14, 154, 167);"/>
	<path fill-rule="evenodd" clip-rule="evenodd" fill="#5B5B5F" d="M513.6,54.9c9.8,0.4,18.5,1,26.9,4.2c6,2.3,12.3,3.6,18.3,5.6&#10;&#9;&#9;c2.9,1,5.9,2.3,8.5,3.8c6.7,3.9,13.2,8.1,19.8,12.1c8.3,5,15.1,11.5,21.1,19c0.8,1.1,1.7,2.1,2.7,3c6.6,6,11.1,13.5,15.3,21.2&#10;&#9;&#9;c2.6,4.8,5.4,9.6,7.5,14.6c1.8,4.2,2.6,8.8,3.8,13.3c1.5,5.7,2.8,11.5,4.5,17.2c1.7,5.7,1.8,11.6,1.9,17.4&#10;&#9;&#9;c0.1,6.4-0.2,12.8-0.7,19.1c-0.3,4.3-1.1,8.5-1.9,12.8c-1,5.1-2.1,10.2-3.7,15.1c-2.6,8.2-5.6,16.2-8.8,24.2&#10;&#9;&#9;c-3.1,7.8-7.7,14.6-12.1,21.6c-3.5,5.5-8.1,10.3-12.1,15.4c-3,4-7,6.8-11.1,9.5c-3.5,2.3-6.8,4.8-10.2,7.3&#10;&#9;&#9;c-5.1,3.7-10.5,7-16.3,9.7c-8.1,3.7-16.9,5.7-25.3,8.4c-0.6,0.2-1.2,0.4-1.7,0.3c-5.8-1.3-11.6,0.2-17.3,0.3&#10;&#9;&#9;c-11.2,0.2-22.2-1.7-32.9-5.1c-2.3-0.7-4.5-1.4-6.8-2c-8.7-2.3-16.8-5.8-24.4-10.6c-8.7-5.5-17.7-10.4-25.2-17.5&#10;&#9;&#9;c-6.8-6.4-14.1-12.4-19.9-19.8c-2.2-2.8-4.9-5.2-6.9-8.1c-6.4-8.9-9.3-19.6-13-29.7c-3.6-9.6-6.4-19.5-9.4-29.3&#10;&#9;&#9;c-2.6-8.5-2.7-17.2-2.1-26.1c0.8-12.6,4.1-24.6,8-36.4c2.2-6.7,6.2-12.7,9.6-19c3.3-6,6.7-11.9,10.3-17.7c2-3.3,4.4-6.3,6.9-9.2&#10;&#9;&#9;c2.3-2.7,4.8-5.3,7.5-7.6c2.8-2.4,5.7-4.7,8.9-6.6c7.7-4.5,15.5-8.8,23.3-13.1c5.1-2.8,10.2-5.5,15.3-8.2c0.9-0.5,1.9-0.8,2.9-1&#10;&#9;&#9;c5.8-1.3,11.4-3,17-5c3.9-1.4,8.1-1.9,12.2-2.4C507.5,55.1,511.1,55,513.6,54.9z M395,198.1c0.7,4.7,1.2,9.4,2.3,14&#10;&#9;&#9;c1.2,5.4,3,10.8,4.5,16.2c0.6,2.3,0.9,4.7,1.7,6.9c3.9,10.6,9.7,20.3,15.6,29.9c2.2,3.5,4.6,7,7.4,10c4.1,4.3,8.7,8.1,13.3,11.9&#10;&#9;&#9;c3.6,2.9,7.5,5.4,11.2,8.1c3.6,2.6,7,5.4,10.8,7.6c9.9,5.7,20.5,10.2,31.5,13.2c4.6,1.2,9.4,1.5,13.9,2.8&#10;&#9;&#9;c5.3,1.5,10.6,1.5,15.9,1.3c9.2-0.3,18-3.2,27-4.7c2-0.3,4.3-0.3,6.1-1.2c10.4-5,21.2-9.3,29.7-17.7c1.2-1.1,2.6-2,3.9-3&#10;&#9;&#9;c2.8-2.4,5.7-4.7,8.3-7.3c2.4-2.4,3.9-5.9,6.5-7.7c3.2-2.2,3.1-5.8,5-8.5c0.6-0.9,1.1-1.8,1.8-2.6c3.4-4.7,6.6-9.4,8.6-15&#10;&#9;&#9;c1.4-3.9,3.3-7.6,4.7-11.4c1.8-5,3.4-10.1,5-15.2c0.6-2,1-4,1.5-6c1.5-6.8,4.1-13.3,3.9-20.5c-0.2-10.1-1.9-20-3.9-29.9&#10;&#9;&#9;c-0.7-3.5-2.1-6.8-3.1-10.2c-2.5-8.2-4.6-16.6-7.5-24.7c-2.5-7.1-6.8-13.1-12.7-18c-4.9-4.1-9.8-8.2-14.6-12.4&#10;&#9;&#9;c-3.6-3.1-6.9-6.6-10.8-9.2c-6.3-4.1-13-7.7-19.6-11.4c-1.8-1-3.8-1.7-5.7-2.4c-5.7-2-11.8-3.3-17.4-5.3c-10-3.5-20.2-3.3-30.4-3.1&#10;&#9;&#9;c-10.1,0.2-20,2-29.7,4.9c-3,0.9-6,1.5-9,2.5c-7,2.3-13.1,6.3-19.1,10.4c-3.2,2.1-6.7,3.8-9.9,5.9c-6.5,4.2-11.8,9.8-17.1,15.3&#10;&#9;&#9;c-3.1,3.2-6.4,6.3-8.8,10c-3.8,5.9-7.8,11.9-9.9,18.8c-1.3,4.2-3.5,8.2-4.5,12.5c-1.8,7.6-2.7,15.3-4.4,22.9c-0.7,3,0.1,6-0.4,8.7&#10;&#9;&#9;C395.5,189,395.6,193.5,395,198.1z" style="fill: rgb(14, 154, 167);"/>
	<path fill-rule="evenodd" clip-rule="evenodd" fill="#5B5B5F" d="M403.4,190.6c0.6-3.3,1.4-7.1,2-10.9c1.1-6.4,2.1-12.9,3-19.3&#10;&#9;&#9;c1-6.8,3.2-13.2,6.2-19.4c2.3-4.8,4.2-9.9,7.4-14.1c5.9-7.8,12.4-15.2,20.5-21c3-2.1,6.4-3.6,9.6-5.4c0.9-0.5,1.9-0.9,2.5-1.7&#10;&#9;&#9;c4.2-5.2,10.3-7.1,16.2-8.9c8.5-2.6,17.1-4.6,25.8-6.6c3-0.7,6.1-1.1,9.2-1.2c6-0.2,12.1-0.5,18.1,0c4.7,0.4,9.3,1.7,13.9,2.8&#10;&#9;&#9;c11.3,2.7,22.2,6.7,32.2,12.5c5.6,3.3,10.9,7,15.5,11.7c4.2,4.4,9,8.2,13.9,11.9c7.3,5.6,12.7,12.4,15.2,21.3&#10;&#9;&#9;c1.8,6.6,3.5,13.1,5.3,19.7c1,3.6,2.2,7.1,3.1,10.7c0.9,3.7,1.9,7.5,2.4,11.3c0.5,4.4,0,8.9,0.5,13.3c0.9,7.3-1.4,14.1-2.9,21&#10;&#9;&#9;c-1.7,8-4.6,15.6-8,23.1c-1.9,4.2-2.9,8.8-5.2,12.7c-2.9,5.1-5.4,10.5-9.8,14.7c-0.9,0.9-1.6,2.2-2.2,3.4&#10;&#9;&#9;c-2.6,4.9-6.1,9.1-10.7,12.4c-2.5,1.8-4.8,3.8-7,6c-5.2,5-11.8,7.9-18,11.4c-6.6,3.7-14,6.3-21.6,6.4c-5.3,0.1-10.2,0.7-15.2,2.5&#10;&#9;&#9;c-0.9,0.3-2.1,0.3-3.1,0.2c-8.5-0.8-17.1-1-25.4-3.6c-5.1-1.6-9.8-4.2-14.9-5.6c-6.5-1.9-12.2-5.2-17.9-8.5c-3.4-2-6.3-4.8-9.5-7.2&#10;&#9;&#9;c-1.8-1.3-3.5-2.7-5.4-3.9c-7.4-5-13.8-10.9-19.3-18.2c-5.5-7.5-10.3-15.3-14.5-23.4c-4-7.5-7.1-15.7-7.9-24.5&#10;&#9;&#9;c-0.3-3.7-1.8-7.2-2.3-10.9C404.4,200.6,404,195.9,403.4,190.6z" style="fill: rgb(14, 154, 167);"/>
</g></svg>
