<?xml version="1.0" encoding="utf-8"?>
<svg id="master-artboard" viewBox="0 0 2000 1300" version="1.1" xmlns="http://www.w3.org/2000/svg" x="0px" y="0px" width="2000px" height="1300px" enable-background="new 0 0 2000 1300"><rect id="ee-background" x="0" y="0" width="2000" height="1300" style="fill: white; fill-opacity: 0; pointer-events: none;"/>

<path fill="#FFFFFF" d="M1577.129,1051.013c-1.289-1.447-3.403,0.682-2.121,2.121c0.587,0.659-1.048,1.926-1.5,2.379&#10;&#9;c-1.367,1.37,0.754,3.492,2.121,2.121c0.906-0.907,1.97-1.903,2.371-3.162C1578.419,1053.159,1578.02,1052.012,1577.129,1051.013z"/>
<path fill="#FFFFFF" d="M760.313,1060.316c-1.119,2.185-2.539,3.969-4.265,5.696c-1.369,1.37,0.753,3.491,2.121,2.121&#10;&#9;c1.894-1.896,3.507-3.907,4.734-6.304C763.783,1060.112,761.195,1058.594,760.313,1060.316z"/>
<path fill="#FFFFFF" d="M775.312,1064.816c-2.069,2.98-5.238,5.332-8.461,6.961c-1.727,0.872-0.208,3.46,1.514,2.59&#10;&#9;c3.695-1.867,7.173-4.631,9.538-8.037C779.01,1064.736,776.408,1063.239,775.312,1064.816z"/>
<path fill="#FFFFFF" d="M789.046,1069.012c-2.458,2.341-5.797,4.024-8.696,5.766c-1.656,0.994-0.149,3.589,1.514,2.59&#10;&#9;c3.125-1.877,6.651-3.709,9.303-6.234C792.571,1069.797,790.446,1067.679,789.046,1069.012z"/>
<path fill="#FFFFFF" d="M801.35,1070.277c-3.068,2.046-6.412,4.072-8.935,6.798c-0.804,0.868-1.574,2.043-1.199,3.274&#10;&#9;c0.441,1.449,2.102,1.693,3.392,1.723c1.922,0.044,1.929-2.91,0.039-2.995c0.605-0.673,1.323-1.26,2.017-1.825&#10;&#9;c1.959-1.599,4.1-2.983,6.201-4.385C804.464,1071.8,802.964,1069.2,801.35,1070.277z"/>
<path fill="#FFFFFF" d="M812.811,1073.815c-1.275,2.386-3.509,3.695-6.204,3.757c-1.932,0.044-1.936,3.044,0,3&#10;&#9;c3.714-0.084,7.026-1.934,8.795-5.243C816.312,1073.624,813.723,1072.108,812.811,1073.815z"/>
<path fill="#FFFFFF" d="M823.105,1074.572c-0.808,0-1.413,0.632-1.488,1.405c-0.014,0.005-0.033,0.014-0.042,0.017&#10;&#9;c-0.064,0.016-0.129,0.027-0.194,0.039c0.089-0.022-0.331,0.021-0.345,0.022c-0.327,0.021-1.036,0.017-1.036,0.017&#10;&#9;c-2,0.001-2,3.001,0,3c1,0,1.875,0.021,2.694-0.311c1.18-0.479,1.836-1.416,1.885-2.689&#10;&#9;C824.61,1075.255,823.899,1074.572,823.105,1074.572z"/>
<g>
	<path opacity="0.2" fill="#A39696" d="M1141.73,742.634c-46.264-24.436-95.856-44.59-138.151-75.87&#10;&#9;&#9;c-15.115-12.373-28.447-26.578-47.994-32c-12.907-3.58-26.569-1.382-38.126,5.116c-4.457,2.506-8.251,5.887-12.001,9.314&#10;&#9;&#9;c-2.075-1.183-4.092-2.463-6.059-3.83c-2.695-2.303-5.252-4.751-7.617-7.388c-0.032-0.05-0.062-0.101-0.093-0.151&#10;&#9;&#9;c-4.072-12.888-15.298-22.504-29.884-22.504c-16.518,0-32.363,14.337-31.5,31.5c1.288,25.605,24.365,46.71,45.634,58.066&#10;&#9;&#9;c14.093,7.524,31.489,12.794,47.134,6.771c8.706-3.353,14.276-6.927,21.399-12.952c0.14,0.095,0.282,0.188,0.422,0.285&#10;&#9;&#9;c4.079,3.419,7.998,7.021,12.013,10.519c7.459,6.497,15.591,12.232,23.756,17.801c13.338,9.097,27.274,17.286,41.446,25.005&#10;&#9;&#9;c28.854,15.716,58.774,29.375,87.824,44.718c15.184,8.021,34.15,3.975,43.098-11.301&#10;&#9;&#9;C1161.425,771.404,1156.897,750.645,1141.73,742.634z"/>
	<g>
		<g>
			<path fill="#92D1FF" d="M863,557c-25,7-32,24-40,47c-8,25-6,40,5,63c5,12,12,58,28,52c23-10-15-38-13-49c5-28,34,19,40,26&#10;&#9;&#9;&#9;&#9;c-14-39,33-18,50-9c25,14,51,33,74,52c-14-26-36-33-57-50c-7-6-22-19-20-29c2-16,20-8,30-1c49,31,80,83,129,115c13,8,76,43,67,6&#10;&#9;&#9;&#9;&#9;c-6-28-46-42-68-54c-43-22-94-45-130-78c-9-8-22-24-2-25c12-1,26,13,37,16c-9-5-54-29-42-42c13-14,59,7,74-2c26-14-40-15-50-14&#10;&#9;&#9;&#9;&#9;c-9,2-25,8-34,3c-10-4-17-20,0-20c-20-2-25-8-42-15s-7,6-22,8H863z"/>
		</g>
		<g>
			<path fill="#92D1FF" d="M968.592,546.596c12,0,23.999,10.5,35.999,7.5c16.499-4.5,16.499-10.5,4.499-14.999&#10;&#9;&#9;&#9;&#9;c-8.999-4.5-29.998,1.5-40.498,4.5"/>
		</g>
		<g>
			<path fill="#92D1FF" d="M1030.088,642.593c20.999,9,47.997,28.499,71.996,26.999c-11.999-11.999-50.997-26.999-68.996-26.999"/>
		</g>
	</g>
	<path fill="#FFFFFF" d="M871.846,569.302c-2.914,1.351-6.314,0.933-8.682-1.265c-1.416-1.314-3.542,0.803-2.121,2.121&#10;&#9;&#9;c3.42,3.174,8.139,3.67,12.317,1.734C875.113,571.08,873.588,568.495,871.846,569.302z"/>
	<path fill="#FFFFFF" d="M863.603,578.097c-4.067-0.064-7.97-1.33-11.999-1.5c-1.935-0.082-1.927,2.919,0,3&#10;&#9;&#9;c4.023,0.169,7.934,1.435,11.999,1.5C865.538,581.128,865.535,578.128,863.603,578.097z"/>
	<path fill="#FFFFFF" d="M861.652,582.651c-4.728,1.451-9.652,1.444-14.652,1.446c-2,0.001-2,3.001,0,3&#10;&#9;&#9;c5-0.002,10.448-0.027,15.424-1.554C864.268,584.978,863.507,582.082,861.652,582.651z"/>
	<path fill="#FFFFFF" d="M852.043,589.036c-2.967,2.718-7.163,2.558-10.939,2.561c-1.935,0.001-1.935,3.001,0,3&#10;&#9;&#9;c4.675-0.003,9.429-0.113,13.06-3.439C855.594,589.848,853.466,587.732,852.043,589.036z"/>
	<path fill="#FFFFFF" d="M851.205,596.15c-2.525,0.853-5.022,1.786-7.53,2.688c-1.717,0.619-3.727,1.623-5.57,1.757&#10;&#9;&#9;c-1.917,0.139-1.931,3.14,0,3c1.947-0.142,3.863-0.977,5.683-1.62c2.742-0.968,5.46-2.003,8.215-2.934&#10;&#9;&#9;C853.825,598.428,853.043,595.529,851.205,596.15z"/>
	<path fill="#FFFFFF" d="M852.705,605.15c-6.396,2.251-12.444,5.87-18.357,9.15c-1.692,0.939-0.179,3.53,1.514,2.591&#10;&#9;&#9;c5.679-3.151,11.501-6.687,17.641-8.849C855.314,607.405,854.534,604.506,852.705,605.15z"/>
	<path fill="#FFFFFF" d="M846.043,616.035c-3.467,3.372-7.684,6.086-11.695,8.765c-1.6,1.069-0.1,3.668,1.514,2.591&#10;&#9;&#9;c4.219-2.817,8.656-5.688,12.303-9.234C849.553,616.806,847.43,614.686,846.043,616.035z"/>
	<path fill="#FFFFFF" d="M843.347,629.299c-2.272,1.137-4.581,2.244-6.747,3.577c-0.727,0.447-1.34,0.901-1.677,1.702&#10;&#9;&#9;c-0.47,1.117,0.747,1.953,1.681,2.016c0.814,0.055,1.279-0.447,1.405-1.056c0.112-0.07,0.222-0.144,0.334-0.213&#10;&#9;&#9;c0.657-0.404,1.34-0.769,2.019-1.134c1.483-0.797,2.992-1.549,4.498-2.302C846.591,631.024,845.071,628.437,843.347,629.299z"/>
	<path fill="#FFFFFF" d="M842.604,636.595c0,0.31-0.003,0.62-0.029,0.929c-0.007,0.025-0.016,0.061-0.029,0.116&#10;&#9;&#9;c-0.012,0.05-0.027,0.099-0.043,0.148c-0.003,0.005-0.005,0.008-0.009,0.015c0.067-0.107-0.415,0.227-0.116,0.11&#10;&#9;&#9;c-0.494,0.192-0.705,0.174-1.274,0.181c-1.933,0.023-1.936,3.023,0,3c1.475-0.018,2.964-0.335,3.864-1.601&#10;&#9;&#9;c0.593-0.835,0.635-1.912,0.636-2.898C845.604,634.66,842.604,634.66,842.604,636.595z"/>
	<path fill="#FFFFFF" d="M1071,734h-5c-2,0-2,3,0,3h5C1073,737,1073,734,1071,734z"/>
	<path fill="#FFFFFF" d="M1078.092,741.589c-1.798,0-3.873-0.12-5.532,0.687c-0.884,0.43-1.35,1.176-1.456,2.135&#10;&#9;&#9;c-0.115,1.039,0.771,2.061,1.428,2.739c1.347,1.394,3.466-0.73,2.121-2.121c-0.076-0.079-0.149-0.157-0.222-0.236&#10;&#9;&#9;c0.013-0.003,0.024-0.007,0.036-0.01c1.093-0.256,2.438-0.193,3.625-0.193C1080.026,744.589,1080.026,741.589,1078.092,741.589z"/>
	<path fill="#FFFFFF" d="M1083.031,748.028c-1.722,1.625-4.092,2.493-6.439,2.561c-1.931,0.056-1.936,3.056,0,3&#10;&#9;&#9;c3.148-0.091,6.257-1.264,8.561-3.439C1086.562,748.818,1084.437,746.701,1083.031,748.028z"/>
	<path fill="#FFFFFF" d="M1093.092,755.089c-3.148,0.091-6.257,1.264-8.561,3.438c-1.409,1.33,0.716,3.447,2.121,2.121&#10;&#9;&#9;c1.722-1.625,4.092-2.492,6.439-2.56C1095.022,758.033,1095.027,755.033,1093.092,755.089z"/>
	<path fill="#FFFFFF" d="M1103.796,761.831c-1.276,2.386-3.51,3.695-6.205,3.757c-1.932,0.044-1.936,3.044,0,3&#10;&#9;&#9;c3.714-0.084,7.026-1.934,8.795-5.243C1107.298,761.64,1104.708,760.124,1103.796,761.831z"/>
	<path fill="#FFFFFF" d="M1117.833,765.793c-2.715,1.308-5.725,2.114-8.641,2.849c-1.876,0.472-1.08,3.365,0.797,2.893&#10;&#9;&#9;c3.178-0.8,6.399-1.726,9.357-3.151C1121.09,767.543,1119.567,764.957,1117.833,765.793z"/>
	<path fill="#FFFFFF" d="M1128.333,768.793c-3.298,1.622-6.732,2.983-10.142,4.349c-1.773,0.71-1,3.612,0.797,2.893&#10;&#9;&#9;c3.648-1.461,7.33-2.915,10.858-4.651C1131.583,770.529,1130.062,767.942,1128.333,768.793z"/>
	<path fill="#FFFFFF" d="M1138.528,773.527c-2.281,2.223-5.002,3.938-7.529,5.858c-0.644,0.489-1.525,1.038-1.893,1.794&#10;&#9;&#9;c-0.594,1.223,0.227,2.287,1.483,2.407c0.891,0.085,1.36-0.513,1.425-1.196c0.244-0.218,0.504-0.419,0.764-0.616&#10;&#9;&#9;c0.854-0.649,1.731-1.271,2.601-1.903c1.814-1.321,3.659-2.652,5.271-4.223C1142.037,774.297,1139.914,772.177,1138.528,773.527z&#10;&#9;&#9; M1132.019,782.113c-0.047-0.716-0.521-1.44-1.429-1.526C1132.31,780.751,1132.259,781.558,1132.019,782.113z"/>
	<path fill="#FFFFFF" d="M1142.643,783.188c-1.267,3.574-3.905,4.853-7.554,4.898c-1.933,0.024-1.936,3.024,0,3&#10;&#9;&#9;c5.06-0.064,8.724-2.24,10.446-7.102C1146.184,782.157,1143.284,781.378,1142.643,783.188z"/>
</g>
<g>
	
	
	
	
	
	
	
	
	
	
	
	
	
	
	
	
	
	<path fill="#FFFFFF" d="M1625.064,762.587c-0.091,2.058-1.408,3.908-1.5,6c-0.085,1.935,2.915,1.927,3,0&#10;&#9;&#9;c0.091-2.058,1.408-3.908,1.5-6C1628.149,760.652,1625.149,760.66,1625.064,762.587z" style="fill: rgb(61, 164, 171);"/>
	<path fill="#FFFFFF" d="M1628,767v3c0,2,3,2,3,0v-3C1631,765,1628,765,1628,767z" style="fill: rgb(61, 164, 171);"/>
	<path fill="#FFFFFF" d="M1673.116,873.183c-1.622,4.963-2.878,10.036-4.5,15c-0.603,1.844,2.295,2.628,2.893,0.797&#10;&#9;&#9;c1.622-4.963,2.878-10.036,4.5-15C1676.611,872.136,1673.714,871.352,1673.116,873.183z" style="fill: rgb(61, 164, 171);"/>
	<path fill="#FFFFFF" d="M1679.267,886.324c-2.807,4.344-4.597,9.049-4.705,14.256c-0.04,1.936,2.96,1.932,3,0&#10;&#9;&#9;c0.098-4.692,1.772-8.836,4.295-12.742C1682.91,886.208,1680.312,884.705,1679.267,886.324z" style="fill: rgb(61, 164, 171);"/>
	<path fill="#FFFFFF" d="M1683.615,897.182c-1.5,5.999-3,11.999-4.5,17.999c-0.47,1.877,2.424,2.673,2.893,0.797&#10;&#9;&#9;c1.5-5.999,3-11.999,4.5-17.999C1686.978,896.102,1684.084,895.306,1683.615,897.182z" style="fill: rgb(61, 164, 171);"/>
	<path fill="#FFFFFF" d="M1686.615,919.892c-1.329,5.595-1.552,11.108-1.554,17.108c-0.001,2,2.999,2,3,0&#10;&#9;&#9;c0.002-6,0.18-10.871,1.446-16.206C1689.955,918.913,1687.062,918.01,1686.615,919.892z" style="fill: rgb(61, 164, 171);"/>
	<path fill="#FFFFFF" d="M1691.267,935.782c-1.687,3.581-1.704,7.218-1.705,11.218c-0.001,2,2.999,2,3,0&#10;&#9;&#9;c0.001-3-0.138-6.681,1.295-9.724C1694.676,935.537,1692.09,934.032,1691.267,935.782z" style="fill: rgb(61, 164, 171);"/>
	<path fill="#FFFFFF" d="M1704.121,946.018c-1.331-1.408-3.449,0.717-2.121,2.121c0.959,1.014,1.06,2.102,1.061,3.438&#10;&#9;&#9;c0.002,1.935,3.002,1.935,3,0C1706.059,949.43,1705.635,947.619,1704.121,946.018z" style="fill: rgb(61, 164, 171);"/>
	
	
	
	
	
	
	<path fill="#FFFFFF" d="M1704.162,66.677c-5.833,2.022-11.348,4.896-16.857,7.651c-1.73,0.865-0.211,3.453,1.514,2.591&#10;&#9;&#9;c5.278-2.638,10.555-5.413,16.141-7.349C1706.775,68.94,1705.994,66.041,1704.162,66.677z" style="fill: rgb(61, 164, 171);"/>
	<path fill="#FFFFFF" d="M1696.663,86.176c-5.679,1.527-10.822,4.473-16.499,6c-1.866,0.502-1.073,3.396,0.797,2.893&#10;&#9;&#9;c5.678-1.527,10.822-4.473,16.499-6C1699.326,88.566,1698.533,85.672,1696.663,86.176z" style="fill: rgb(61, 164, 171);"/>
	<path fill="#FFFFFF" d="M1689.767,95.864c-3.112,4.557-7.188,8.312-12.603,9.811c-1.862,0.515-1.07,3.41,0.797,2.893&#10;&#9;&#9;c6.185-1.711,10.841-5.983,14.396-11.188C1693.451,95.776,1690.85,94.277,1689.767,95.864z" style="fill: rgb(61, 164, 171);"/>
	<path fill="#FFFFFF" d="M1687.305,111.826c-3.852,2.09-6.303,6.17-9.303,9.234c-1.354,1.382,0.766,3.505,2.121,2.121&#10;&#9;&#9;c2.795-2.854,5.117-6.824,8.695-8.765C1690.52,113.494,1689.005,110.903,1687.305,111.826z" style="fill: rgb(61, 164, 171);"/>
	<path fill="#FFFFFF" d="M1688.267,121.363c-2.705,3.997-5.964,7.257-9.961,9.961c-1.593,1.078-0.093,3.678,1.514,2.591&#10;&#9;&#9;c4.432-2.999,8.039-6.606,11.037-11.038C1691.944,121.271,1689.344,119.771,1688.267,121.363z" style="fill: rgb(61, 164, 171);"/>
	<path fill="#FFFFFF" d="M1684.001,136.059c-3.184,3.117-6.675,5.573-9.233,9.303c-1.098,1.6,1.503,3.098,2.59,1.514&#10;&#9;&#9;c2.397-3.493,5.782-5.775,8.765-8.696C1687.506,136.825,1685.384,134.705,1684.001,136.059z" style="fill: rgb(61, 164, 171);"/>
	<path fill="#FFFFFF" d="M1683.562,150.619c-0.006,0.165-0.045,0.309-0.162,0.529c-0.173,0.322-0.429,0.569-0.689,0.821&#10;&#9;&#9;c-0.823,0.794-1.896,1.34-2.904,1.854c-1.725,0.878-0.206,3.466,1.514,2.591c2.298-1.17,5.139-2.906,5.242-5.795&#10;&#9;&#9;C1686.631,148.684,1683.631,148.69,1683.562,150.619z" style="fill: rgb(61, 164, 171);"/>
	
	
	
	
	
	
	
	
<path fill="#FFFFFF" d="M1386.781,598.338c-5.729,10.646-4.768,22.063-4.704,33.755c0.011,1.934,3.011,1.935,3,0&#10;&#9;&#9;c-0.06-11.079-1.15-22.121,4.294-32.241C1390.288,598.148,1387.697,596.634,1386.781,598.338z" style="fill: rgb(140, 203, 190);"/><path fill="#FFFFFF" d="M1391.13,613.648c-2.896,7.841-3.049,16.352-3.054,24.352c-0.001,2,2.999,2,3,0&#10;&#9;&#9;c0.005-8,0.141-15.978,2.946-23.577C1394.694,612.604,1391.794,611.85,1391.13,613.648z" style="fill: rgb(140, 203, 190);"/><path fill="#FFFFFF" d="M1401.63,622.694c-1.603,6.52-2.945,13.163-3.054,19.898c-0.031,1.936,2.969,1.933,3,0&#10;&#9;&#9;c0.104-6.475,1.406-12.833,2.946-19.1C1404.984,621.613,1402.092,620.816,1401.63,622.694z" style="fill: rgb(140, 203, 190);"/><path fill="#FFFFFF" d="M1411,629v18c0,2,3,2,3,0v-18C1414,627,1411,627,1411,629z" style="fill: rgb(140, 203, 190);"/><path fill="#FFFFFF" d="M1424.128,639.193c-1.396,4.109-2.955,8.002-3.053,12.398c-0.043,1.936,2.957,1.932,3,0&#10;&#9;&#9;c0.091-4.107,1.643-7.767,2.945-11.601C1427.645,638.154,1424.747,637.373,1424.128,639.193z" style="fill: rgb(140, 203, 190);"/><path fill="#FFFFFF" d="M1433.074,645.592c-0.091,4.107-1.643,7.767-2.946,11.601c-0.625,1.836,2.273,2.618,2.893,0.797&#10;&#9;&#9;c1.397-4.108,2.956-8.002,3.054-12.398C1436.117,643.657,1433.117,643.661,1433.074,645.592z" style="fill: rgb(140, 203, 190);"/><path fill="#FFFFFF" d="M1818.994,460.041c-9.63,9.747-18.051,20.751-29.695,28.264c-1.619,1.045-0.117,3.643,1.514,2.591&#10;&#9;&#9;c11.873-7.66,20.482-18.793,30.303-28.733C1822.476,460.785,1820.355,458.663,1818.994,460.041z" style="fill: rgb(140, 203, 190);"/><path fill="#FFFFFF" d="M1820.798,482.305c-6.536,4.936-12.724,10.39-19.499,14.999c-1.59,1.082-0.091,3.682,1.514,2.591&#10;&#9;&#9;c6.776-4.61,12.964-10.064,19.499-14.999C1823.835,483.746,1822.343,481.139,1820.798,482.305z" style="fill: rgb(140, 203, 190);"/><path fill="#FFFFFF" d="M1827.993,493.04c-6.188,5.954-13.946,9.906-21.837,13.114c-1.768,0.718-0.996,3.622,0.797,2.893&#10;&#9;&#9;c8.389-3.409,16.581-7.554,23.161-13.885C1831.511,493.817,1829.387,491.698,1827.993,493.04z" style="fill: rgb(140, 203, 190);"/><path fill="#FFFFFF" d="M1830.993,505.039c-4.792,4.73-10.197,8.786-14.999,13.499c-1.383,1.356,0.74,3.477,2.121,2.121&#10;&#9;&#9;c4.802-4.712,10.208-8.769,14.999-13.499C1834.492,505.8,1832.37,503.679,1830.993,505.039z" style="fill: rgb(140, 203, 190);"/><path fill="#FFFFFF" d="M1830.993,515.539c-5.354,5.355-10.636,10.771-15.233,16.802c-1.174,1.54,1.434,3.031,2.59,1.515&#10;&#9;&#9;c4.438-5.82,9.6-11.029,14.765-16.196C1834.483,516.291,1832.362,514.169,1830.993,515.539z" style="fill: rgb(140, 203, 190);"/><path fill="#FFFFFF" d="M1827.554,531.598c-0.134,4.01-2.887,6.762-5.56,9.439c-1.368,1.37,0.753,3.491,2.121,2.121&#10;&#9;&#9;c3.287-3.292,6.276-6.683,6.438-11.56C1830.618,529.663,1827.618,529.669,1827.554,531.598z" style="fill: rgb(140, 203, 190);"/><path fill="#FFFFFF" d="M1600.86,755.83c-3.015-6.623-2.643-14.347-1.349-21.343c0.35-1.891-2.541-2.698-2.893-0.797&#10;&#9;&#9;c-1.458,7.88-1.732,16.22,1.651,23.653C1599.07,759.103,1601.656,757.576,1600.86,755.83z" style="fill: rgb(140, 203, 190);"/><path fill="#FFFFFF" d="M1607.271,740.831c-3.152,5.157-3.388,11.965-1.651,17.654c0.562,1.845,3.459,1.058,2.893-0.797&#10;&#9;&#9;c-1.51-4.947-1.399-10.847,1.349-15.344C1610.872,740.689,1608.277,739.184,1607.271,740.831z" style="fill: rgb(140, 203, 190);"/><path fill="#FFFFFF" d="M1617.359,749.845c0.81-1.742-1.776-3.268-2.59-1.514c-3.057,6.584-3.056,12.929,0,19.513&#10;&#9;&#9;c0.813,1.754,3.399,0.229,2.59-1.514C1614.797,760.809,1614.797,755.366,1617.359,749.845z" style="fill: rgb(140, 203, 190);"/><path fill="#FFFFFF" d="M1307.135,298.712c-1.521,4.239-4.475,7.749-6,12c-0.655,1.826,2.244,2.604,2.893,0.798&#10;&#9;&#9;c1.521-4.239,4.475-7.749,6-12C1310.683,297.685,1307.783,296.906,1307.135,298.712z" style="fill: rgb(140, 203, 190);"/><path fill="#FFFFFF" d="M1319.134,319.711c-1.452,4.438-2.932,9.192-3.054,13.898c-0.05,1.936,2.95,1.931,3,0&#10;&#9;&#9;c0.114-4.423,1.581-8.928,2.946-13.101C1322.63,318.665,1319.732,317.881,1319.134,319.711z" style="fill: rgb(140, 203, 190);"/><path fill="#FFFFFF" d="M1323.634,330.406c-1.262,4.047-1.551,7.594-1.554,12.594c-0.001,2,2.999,2,3,0&#10;&#9;&#9;c0.003-4,0.262-7.897,1.446-11.698C1327.104,329.45,1324.207,328.566,1323.634,330.406z" style="fill: rgb(140, 203, 190);"/><path fill="#FFFFFF" d="M1329.58,341.109c-0.092,5.552-1.592,10.759-2.946,16.1c-0.476,1.876,2.417,2.672,2.893,0.798&#10;&#9;&#9;c1.422-5.603,2.957-11.079,3.054-16.898C1332.612,339.174,1329.612,339.177,1329.58,341.109z" style="fill: rgb(140, 203, 190);"/><path fill="#FFFFFF" d="M1339,356v9c0,2,3,2,3,0v-9C1342,354,1339,354,1339,356z" style="fill: rgb(140, 203, 190);"/><path fill="#FFFFFF" d="M1644.762,301.351c-7.392,11.971-22.284,13.603-34.979,15.601c-12.635,1.988-24.443,5.219-34.631,13.321&#10;&#9;&#9;c-10.326,8.212-18.132,18.876-26.357,29.067c-7.94,9.837-16.794,19.714-29.131,23.819c-1.826,0.607-1.044,3.505,0.797,2.893&#10;&#9;&#9;c24.836-8.264,35.987-35.95,54.853-52.069c11.359-9.706,24.829-12.478,39.155-14.751c12.507-1.985,25.762-4.832,32.883-16.365&#10;&#9;&#9;C1648.371,301.214,1645.775,299.708,1644.762,301.351z" style="fill: rgb(140, 203, 190);"/><path fill="#FFFFFF" d="M1409.508,535.036c-7.684,6.158-15.452,12.73-24.837,16.113c-1.806,0.651-1.027,3.55,0.797,2.893&#10;&#9;&#9;c9.905-3.57,18.047-10.381,26.161-16.885C1413.139,535.947,1411.002,533.838,1409.508,535.036z" style="fill: rgb(140, 203, 190);"/><path fill="#FFFFFF" d="M1424.272,541.339c-4.138,8.989-12.628,15.479-22.704,15.756c-1.931,0.053-1.936,3.053,0,3&#10;&#9;&#9;c11.068-0.304,20.717-7.298,25.294-17.243C1427.666,541.108,1425.08,539.583,1424.272,541.339z" style="fill: rgb(140, 203, 190);"/><path fill="#FFFFFF" d="M1430.272,550.339c-2.242,3.314-4.853,6.578-8.462,8.461c-1.716,0.896-0.199,3.484,1.514,2.591&#10;&#9;&#9;c4.062-2.119,7.017-5.811,9.538-9.538C1433.95,550.246,1431.35,548.746,1430.272,550.339z" style="fill: rgb(140, 203, 190);"/><path fill="#FFFFFF" d="M1655.261,325.35c-3.988,6.488-9.132,12.392-15.961,15.961c-1.716,0.896-0.198,3.485,1.514,2.591&#10;&#9;&#9;c7.267-3.798,12.794-10.134,17.037-17.037C1658.867,325.211,1656.271,323.705,1655.261,325.35z" style="fill: rgb(140, 203, 190);"/><path fill="#FFFFFF" d="M1664.261,343.349c-1.908,3.472-6.007,5.552-9.604,6.811c-1.813,0.634-1.034,3.533,0.797,2.893&#10;&#9;&#9;c4.335-1.517,9.101-4.011,11.396-8.188C1667.783,343.167,1665.192,341.653,1664.261,343.349z" style="fill: rgb(140, 203, 190);"/><path fill="#FFFFFF" d="M1668.994,355.045c-3.305,3.226-7.195,5.773-10.499,9c-1.386,1.353,0.737,3.473,2.121,2.121&#10;&#9;&#9;c3.305-3.226,7.194-5.773,10.499-9C1672.502,355.813,1670.379,353.693,1668.994,355.045z" style="fill: rgb(140, 203, 190);"/><g>
		<g>
			<g>
				<path fill="#4549D0" d="M1349.225,739.42c-1.564,0.712-3.116,1.437-4.653,2.169&#10;&#9;&#9;&#9;&#9;&#9;C1346.233,740.966,1347.776,740.232,1349.225,739.42z" style="fill: rgb(140, 203, 190);"/>
			</g>
			<g>
				<g>
					<path fill="#4549D0" d="M1881.544,273.612c11.999-9,83.996-61.497,28.499-59.997c-37.498,1.5-59.997,56.997-88.496,71.997&#10;&#9;&#9;&#9;&#9;&#9;&#9;c-16.499,7.5-34.498,10.5-38.998-12c-1.5-7.5,19.499-43.498,17.999-44.998c-16.499,28.499-47.997,23.375-65.996-0.624l-9-8.375&#10;&#9;&#9;&#9;&#9;&#9;&#9;c-7.499-9-5.999-19.499-5.999-29.999c0-32.999,22.498-61.497,23.998-94.495c1.5-46.498-46.497-50.998-67.496-12&#10;&#9;&#9;&#9;&#9;&#9;&#9;c-16.499,31.499,1.5,70.497-10.5,103.495c-11.999,34.499-65.996,44.998-59.996-1.5c-9,13.5-16.5,28.499-34.499,31.499&#10;&#9;&#9;&#9;&#9;&#9;&#9;c-38.998,6-52.497-38.998-67.496-65.997c-26.999-50.998-46.498,7.5-46.498,38.998s3,115.994-53.997,85.996l-19.499-3.5&#10;&#9;&#9;&#9;&#9;&#9;&#9;c-34.499-7.5-107.995,6-85.496,53.998c16.499,34.498,50.997,50.998,19.499,91.495c-25.499,29.999-71.996,46.498-79.496,88.496&#10;&#9;&#9;&#9;&#9;&#9;&#9;c-4.5,31.499,19.499,44.998,38.998,62.997c19.499,20.999,19.499,41.998,28.499,67.497c2.999,10.5,7.499,22.499,14.999,31.498&#10;&#9;&#9;&#9;&#9;&#9;&#9;c8.999,10.5,23.999,10.5,32.998,19.499c15.356,13.961,15.109,40.905-4.346,51.829c30.47-13.888,65.441-23.073,86.842,11.168&#10;&#9;&#9;&#9;&#9;&#9;&#9;c22.499,32.998,23.999,55.497,71.996,52.498c37.498-1.5,77.996-28.499,112.494-3c31.499,23.998,31.499,76.496,35.999,110.994&#10;&#9;&#9;&#9;&#9;&#9;&#9;c2.999,25.499,29.998,85.496,62.996,49.497c17.999-20.999,3-67.496-7.499-85.495c-13.5-28.499-46.498-64.497-35.998-98.995&#10;&#9;&#9;&#9;&#9;&#9;&#9;c4.499-19.499,22.498-29.999,40.498-32.998c26.998-4.5,38.998,10.499,59.996,17.999c3,1.5,6,5.999,7.5,7.499&#10;&#9;&#9;&#9;&#9;&#9;&#9;c-3-14.999-16.499-46.497,1.5-58.497c17.999-11.999,44.998,13.5,58.497,23.999c-4.5-35.998-29.998-58.497-1.5-92.995&#10;&#9;&#9;&#9;&#9;&#9;&#9;c22.499-28.499,61.497-41.998,67.497-82.496c5.999-43.498-34.498-62.997-40.498-101.995c-1.5-7.5,1.5-16.499,0-23.999&#10;&#9;&#9;&#9;&#9;&#9;&#9;c-3-9-12-13.5-13.5-20.999c-5.999-19.499,9-28.499,4.5-44.998c-7.499-20.999-31.498-20.999-23.998-47.998&#10;&#9;&#9;&#9;&#9;&#9;&#9;C1841.046,297.611,1865.045,284.111,1881.544,273.612z M1592.062,312.611c-19.499,3-37.498,7.5-50.998,22.499&#10;&#9;&#9;&#9;&#9;&#9;&#9;c-11.999,12-11.999,35.998-22.499,46.498c-26.998,23.999-2.999-40.498-5.999-53.997c-23.999,7.5-35.998,38.998-53.998,55.497&#10;&#9;&#9;&#9;&#9;&#9;&#9;c-16.499,16.499-28.498,29.999-38.998,50.998c-13.499,25.499-26.998,100.495-59.996,101.995&#10;&#9;&#9;&#9;&#9;&#9;&#9;c-35.999,1.5-25.499-64.497-15-85.496c17.999-43.498,61.497-61.497,83.996-100.495c11.999-20.999,44.998-88.495,76.496-74.996&#10;&#9;&#9;&#9;&#9;&#9;&#9;l12-6c34.498-10.5,61.496,0,97.494,6C1671.559,285.613,1623.561,308.112,1592.062,312.611z M1713.557,309.612&#10;&#9;&#9;&#9;&#9;&#9;&#9;c-10.5,0-65.997-12-31.499-18h3C1698.557,291.612,1716.556,294.612,1713.557,309.612z M1779.553,348.61&#10;&#9;&#9;&#9;&#9;&#9;&#9;c-10.499,0-29.998-9-38.998-15c-16.499-14.999,1.5-20.999,12-9l2.999,1.5C1766.054,329.111,1781.053,335.11,1779.553,348.61z" style="fill: rgb(140, 203, 190);"/>
				</g>
			</g>
		</g>
		<g>
			<path fill="#4549D0" d="M1248.579,369.609c-47.997-22.499-98.995-61.497-155.992-62.997&#10;&#9;&#9;&#9;&#9;c-7.499,34.498,128.994,64.497,152.993,67.497" style="fill: rgb(140, 203, 190);"/>
		</g>
		<g>
			<path fill="#4549D0" d="M1388.073,200.119c-4.5-9-9-19.499-13.5-26.999c-5.999-10.5-44.997-50.998-40.497-20.999&#10;&#9;&#9;&#9;&#9;c1.499,10.5,46.497,50.998,58.496,55.497" style="fill: rgb(140, 203, 190);"/>
		</g>
		<g>
			<path fill="#4549D0" d="M1206.583,419.108c-14.999,3-31.499-3-44.998,4.5c16.499,4.5,31.498,1.5,46.498,0" style="fill: rgb(140, 203, 190);"/>
		</g>
	</g><path fill="#FFFFFF" d="M1313.285,310.354c-2.631,3.991-4.607,7.896-4.704,12.757c-0.039,1.936,2.962,1.932,3,0&#10;&#9;&#9;c0.086-4.318,1.969-7.715,4.294-11.242C1316.943,310.248,1314.345,308.747,1313.285,310.354z" style="fill: rgb(140, 203, 190);"/><path fill="#FFFFFF" d="M1499.503,358.044c-17.636,18.926-34.315,38.568-48.514,60.238c-10.295,15.712-17.142,33.056-24.506,50.258&#10;&#9;&#9;c-7.494,17.506-15.339,35.102-26.281,50.773c-9.886,14.158-23.351,26.423-41.03,28.836c-1.91,0.26-1.094,3.151,0.797,2.893&#10;&#9;&#9;c36.487-4.979,54.305-46.921,67.163-76.482c7.363-16.927,13.737-34.61,23.586-50.301c14.58-23.228,32.25-44.072,50.906-64.093&#10;&#9;&#9;C1502.941,358.752,1500.824,356.626,1499.503,358.044z" style="fill: rgb(140, 203, 190);"/><path opacity="0.2" fill="#A39696" d="M1908.659,563.021c-1.184-15.099-1.329-30.318-1.586-45.456&#10;&#9;&#9;c-0.524-30.998-0.365-62.011-1.757-92.989c-0.582-12.953-1.5-25.891-2.907-38.781c-1.782-16.321-6.457-30.968-12.936-45.967&#10;&#9;&#9;c-9.047-20.946-25.372-38.36-41.296-54.314c-18.707-18.745-34.342-40.155-51.793-60.011c-7.685-8.743-15.978-16.878-24.629-24.657&#10;&#9;&#9;c-3.181-2.86-6.535-5.626-9.652-8.608c0.751-3.696,1.646-7.364,2.576-11.018c1.529-6.014,2.635-12.005,4.656-17.832&#10;&#9;&#9;c3.852-8.196,8.205-16.261,10.472-25.041c4.226-16.378,0.901-33.129-7.712-47.478c-8.821-14.696-28.155-20.054-43.098-11.301&#10;&#9;&#9;c-14.674,8.595-20.143,28.368-11.301,43.098c0.24,0.399,0.453,0.806,0.682,1.208c-0.187,0.614-0.38,1.226-0.593,1.834&#10;&#9;&#9;c-4.49,9.705-9.617,19.213-11.801,29.753c-2.533,12.229-5.702,23.956-7.074,36.441c-2.275,20.695,9.556,36.82,24.128,49.778&#10;&#9;&#9;c18.775,16.696,34.831,35.239,50.735,54.637c9.138,11.146,18.459,22.135,28.553,32.433c7.179,7.323,14.38,14.58,20.897,22.489&#10;&#9;&#9;c4.118,5.718,7.744,11.72,10.773,18.083c2.606,6.993,4.516,14.185,5.927,21.519c3.689,37.116,3.522,74.513,3.944,111.771&#10;&#9;&#9;c0.221,19.568,0.156,39.295,1.666,58.816c1.049,13.553,2.483,27.251,1.356,40.84c-0.655,3.431-1.522,6.8-2.612,10.113&#10;&#9;&#9;c-0.15,0.212-0.298,0.424-0.446,0.635c-0.041-0.031-0.082-0.063-0.123-0.095c-2.022,3.146-4.155,6.212-6.37,9.221&#10;&#9;&#9;c-7.566,9.499-15.686,18.535-24.166,27.249c-24.942,17.642-52.854,33.158-65.474,62.541c-2.744,4.731-4.161,9.826-4.279,15.274&#10;&#9;&#9;c-4.833,0.75-9.63,1.689-14.355,2.852c-11.003,2.705-22.55,7.183-31.622,14.096c-4.727,3.602-9.374,6.923-13.062,11.583&#10;&#9;&#9;c-5.9,7.454-8.914,12.685-12.53,21.476c-0.946,2.302-1.719,4.661-2.341,7.064c-4.767-4.017-9.816-7.712-15.141-11.033&#10;&#9;&#9;c-10.576-6.596-22.653-11.345-34.635-14.662c-12.179-3.372-24.33-6.699-36.737-9.159c-23.38-4.635-47.149-6.885-70.774-9.904&#10;&#9;&#9;c-21.739-3.106-43.109-7.702-63.578-15.777c-22.412-10.049-43.641-23.857-63.268-38.665c-8.815-7.037-16.953-14.76-24.122-23.463&#10;&#9;&#9;c-6.078-8.41-11.314-17.367-16.11-26.577c-1.943-3.732-3.775-7.529-5.607-11.326c12.924-6.773,18.809-21.688,15.692-36.267&#10;&#9;&#9;c-2.685-12.56-8.192-24.481-15.352-35.3c-0.858-2.572-1.601-5.178-2.188-7.825c-0.04-0.994-0.047-1.988-0.021-2.982&#10;&#9;&#9;c0.446-1.846,0.991-3.663,1.625-5.458c10.854-22.923,28.355-42.393,40.749-64.463c7.993-14.235,14.987-29.833,18.114-45.925&#10;&#9;&#9;c1.731-8.911,2.854-18.149,2.127-27.231c-1.02-12.725-4.076-22.792-9.228-34.361c-6.496-14.59-30.302-20.684-43.098-11.301&#10;&#9;&#9;c-30.37,22.269-54.578,52.482-77.198,82.248c-23.968,31.54-47.75,67.267-53.009,107.304c-2.577,19.617,5.283,39.133,17.821,53.83&#10;&#9;&#9;c5.392,6.32,12.592,10.944,18.965,16.183c5.572,4.581,10.315,10.091,14.816,15.743c11.885,16.188,18.737,35.398,28.983,52.606&#10;&#9;&#9;c11.558,19.41,26.403,36.588,44.196,50.479c22.479,17.551,46.65,34.449,72.606,46.405c25.222,11.618,51.247,18.682,78.662,22.646&#10;&#9;&#9;c16.089,2.327,32.248,4.077,48.368,6.154c11.785,1.669,23.508,3.682,35.118,6.327c11.978,2.729,24.331,5.739,35.894,10.105&#10;&#9;&#9;c5.018,2.383,9.806,5.151,14.354,8.335c4.405,3.768,8.447,7.892,12.17,12.335c5.14,7.178,9.591,14.884,13.349,22.876&#10;&#9;&#9;c2.295,6.537,3.589,13.361,4.601,20.216c1.602,13.022,2.81,26.259,6.516,38.857c5.198,17.672,15.667,33.447,31.822,42.805&#10;&#9;&#9;c14.878,8.618,34.384,3.533,43.098-11.301c15.372-26.166,14.146-56.342,7.815-84.979c-4.565-20.658-12.506-40.599-16.064-61.478&#10;&#9;&#9;c-0.298-3.302-0.417-6.608-0.261-9.912c0.193-0.836,0.412-1.665,0.654-2.487c0.122-0.214,0.246-0.427,0.372-0.638&#10;&#9;&#9;c0.388-0.396,0.785-0.785,1.188-1.166c1.609-1.019,3.268-1.947,4.971-2.802c5.587-1.984,11.348-3.388,17.193-4.401&#10;&#9;&#9;c12.74-1.176,25.489-0.31,38.255-1.216c21.024-1.492,39.462-8.807,54.491-23.938c27.079-27.263,27.281-66.263,39.604-100.416&#10;&#9;&#9;c6.229-8.907,11.41-18.312,15.687-28.682c4.811-11.664,6.623-24.414,7.206-36.957&#10;&#9;&#9;C1910.74,586.132,1909.562,574.521,1908.659,563.021z" style="fill: rgb(140, 203, 190);"/></g>
<g>
	<path opacity="0.2" fill="#A39696" d="M652.156,407.424c-3.727-13.547-16.359-23.079-30.375-23.126&#10;&#9;&#9;c-8.052-0.027-16.079-0.537-24.073-1.443c-13.413-2.073-26.648-5.286-39.318-10.163c-5.503-2.55-10.8-5.471-15.792-8.912&#10;&#9;&#9;c-0.055-0.047-0.113-0.091-0.167-0.138c-5.731-12.171-10.406-24.841-15.904-37.121c0.021-0.349,0.046-0.698,0.075-1.047&#10;&#9;&#9;c1.748-11.937,2.985-24.604-4.57-35.025c-5.219-7.197-9.831-11.103-17.149-16.341c-0.921-0.66-1.858-1.297-2.797-1.93&#10;&#9;&#9;c-8.625-27.763-14.547-58.99-44.367-71.746c-18.42-7.879-37.657-10.69-56.896-3.822c-3.562,1.271-7.071,2.798-10.592,4.312&#10;&#9;&#9;c-4.504-11.953-16.021-20.644-29.473-20.644c-17.067,0-31.637,14.328-31.5,31.5c0.131,16.416,3.473,31.314,14.163,44.054&#10;&#9;&#9;c8.146,9.708,23.168,15.075,35.627,13.453c10.26-1.336,18.642-3.787,28.113-7.755c5.458-2.287,10.979-4.679,16.732-6.147&#10;&#9;&#9;c0.241,0.006,0.485,0.019,0.727,0.03c1.75,0.363,3.479,0.798,5.188,1.323c0.344,0.19,0.683,0.392,1.021,0.593&#10;&#9;&#9;c0.118,0.118,0.236,0.237,0.354,0.356c0.772,1.254,1.493,2.537,2.156,3.855c3.184,8.795,5.228,17.995,7.882,26.952&#10;&#9;&#9;c2.898,9.78,6.203,18.97,13.54,26.448c2.729,2.782,5.863,5.133,9.102,7.359c-0.262,2.355-0.442,4.715-0.449,7.083&#10;&#9;&#9;c-0.023,8.537,2.415,15.353,5.928,22.922c2.536,5.463,4.859,11.029,7.235,16.562c5.818,13.549,10.254,29.692,21.651,39.649&#10;&#9;&#9;c13.86,12.109,30.392,20.86,48.066,26.958c-4.997,9.3-8.223,19.871-7.793,30.411c0.257,6.323,1.602,11.82,3.496,17.207&#10;&#9;&#9;c-4.639,0.855-8.936,2.549-13.518,4.633c-12.807,5.824-20.138,19.507-25.09,31.838c-3.328,8.285-3.738,18.03-3.215,27.163&#10;&#9;&#9;c-1.671,0.268-3.289,0.7-4.862,1.266c-10.673,0.526-21.091,0.038-31,5.96c-9.525,5.693-13.856,14.346-17.587,23.677&#10;&#9;&#9;c-0.959,0.218-1.92,0.425-2.882,0.611c-1.138,0.065-2.275,0.083-3.412,0.064c-2.176-0.563-4.303-1.279-6.407-2.088&#10;&#9;&#9;c-10.075-4.459-20.553-9.413-31.365-11.168c-6.367-1.034-12.696-2.296-18.992-3.698c-15.01-3.342-29.865-7.648-44.154-13.36&#10;&#9;&#9;c-7.355-3.317-14.504-7.108-21.121-11.725c-1.922-1.658-3.746-3.417-5.459-5.287c-0.411-0.646-0.804-1.302-1.179-1.969&#10;&#9;&#9;c-0.025-0.087-0.046-0.175-0.07-0.263c0-0.081,0.005-0.163,0.006-0.245c0.228-0.894,0.483-1.779,0.767-2.658&#10;&#9;&#9;c1.867-3.556,4.072-6.91,6.497-10.139c4.801-6.393,5.2-16.913,3.176-24.273c-2.166-7.874-7.435-14.701-14.477-18.825&#10;&#9;&#9;c-7.275-4.262-16.142-5.412-24.272-3.176c-8.61,2.369-13.668,7.61-18.825,14.477c-13.301,17.71-20.209,41.971-13.029,63.594&#10;&#9;&#9;c6.888,20.744,22.62,35.822,40.911,46.967c16.133,9.83,34.497,16.565,52.546,21.95c13.616,4.062,27.541,7.204,41.565,9.481&#10;&#9;&#9;c5.599,0.909,11.126,2.921,16.463,5.095c6.885,3.03,13.757,6.329,21.042,8.2c11.738,3.014,22.314,2.156,34.095,0.243&#10;&#9;&#9;c11.963-1.944,26.165-6.096,34.221-15.558c3.551-4.171,6.114-8.608,8.282-13.241c2.421-0.188,4.838-0.541,7.235-0.925&#10;&#9;&#9;c8.906,1.163,17.942,2.49,26.893,2.6c17.042,0.209,31.672-14.486,31.5-31.5c-0.117-11.533-2.672-22.998-3.142-34.508&#10;&#9;&#9;c3.21-0.111,6.491-0.561,10.024-1.569c12.582-3.589,22.504-13.019,28.673-24.308c6.906-12.637,8.429-25.251,6.054-39.181&#10;&#9;&#9;c-0.957-5.611-3.37-10.867-5.75-16.062c5.168-3.079,10.768-5.458,16.148-8.117c9.465-4.678,18.978-10.843,25.775-18.996&#10;&#9;&#9;C651.434,429.22,655.349,419.032,652.156,407.424z M488.27,551.083c0.839-0.354,1.677-0.708,2.516-1.062&#10;&#9;&#9;c-3.032,1.622-5.922,3.665-8.748,5.877C484.115,554.293,486.193,552.688,488.27,551.083z" style="fill: rgb(246, 205, 97);"/>
	<g>
		<g>
			<path fill="#FF6E86" d="M281,262c33.89-2.733,55-19,38-54c-13-25-41-45-50-72c-8-27,19-48,35-21c19,32,11,74,29,107&#10;&#9;&#9;&#9;&#9;c8,14,26,26,43,18c17-9,25-41,27-58c-5,17-23,47,2,57c29,11,35-25,40-43l0,0c-9,26-7,64,33,50c-18,17-13,42,15,38&#10;&#9;&#9;&#9;&#9;c30-4,59-38,79-58c18-17,47-56,73-60c16-2,17,9,8,20c-8,11-21,12-32,17c-32,13-68,31-90,58c-7,8-24,27-16,38c5,8,31,10,39,11l0,0&#10;&#9;&#9;&#9;&#9;l0,0c-19-1-54,8-51,34s51,31,71,33c-11-1-27-8-33,5c4,3,6,6,10,7c-7-1-16-2-21,5c23,36,104,10,137,6c27-4,54-4,81-5&#10;&#9;&#9;&#9;&#9;c10-1,66-5,48,14c-12,12-51,1-66-1c-24-3-49-5-73-4c-22,0-44,2-65,6c-23,3-43,19-12,32l0,0l-1,1c-8-3-28-11-29,2l-1,15&#10;&#9;&#9;&#9;&#9;c1,24,44,32,61,39c50,20,100,34,141,70c15,13,52.727,51.569,18.727,60.569C744.727,635.569,713,607,698,591c-36-38-81-94-141-99&#10;&#9;&#9;&#9;&#9;c-22-2-54,25-34,46c15,15,25,17,44,25c21,9,80,18,90,41c13,29-22,32-42,26c-45-13-93-98-144-79c-10,3-22,14-23,24&#10;&#9;&#9;&#9;&#9;c-1,12,11,20,15,30c7,18-2,34-19,16c-14-13-17-47-39-51c-24-4-24,28-34,41c1-14,10-48-12-34c-18,12-26,37-42,50c3-14,11-25,18-38&#10;&#9;&#9;&#9;&#9;c16-33-14-32-27-5c-10,21-15,46-26,68c-17,34-69,117-116,108c-59-11,48-121,66-135c10-9,99-81,61-95l-12.986-3.016&#10;&#9;&#9;&#9;&#9;C249.014,530.984,240,587,202,580c5-26,42-35,59-51c24-24,2-43-25-31c-22,10-42,29-62,43c-13,9-42,37-59,31c5-31,57-53,83-65&#10;&#9;&#9;&#9;&#9;c15-7,34-10,48-19s20-30-2-20c28-13-32-25-43-24c30,20,92-21,38-38c-34-11-71-13-106-21c-9-2-39-4-31-18c4-8,22-6,29-6&#10;&#9;&#9;&#9;&#9;c27,0,55,8,80,20s44,35,70,44c22,8,43,9,46,36l0,0c26,0,18-27,1-36c-24-11-50-2-68-25c-15-19-4-35-32-46c-8-3-50-8-45-14&#10;&#9;&#9;&#9;&#9;c10-12,58,14,53-23c-3-23-38-22-55-29c-33-12-10-29,15-21c14,5,27,15,42,20c0,0,45,21,5-42C243,245,267.844,263.061,281,262z" style="fill: rgb(246, 205, 97);"/>
		</g>
		<g>
			<path fill="#FF6E86" d="M457,154c11-17,24-93,46-94c17-1-9,35-13,41c-11,20-25,36-37,55" style="fill: rgb(246, 205, 97);"/>
		</g>
		<g>
			<path fill="#FF6E86" d="M606,330c14,0,54,9,60-4c-15-14-45,2-62,2" style="fill: rgb(246, 205, 97);"/>
		</g>
		<g>
			<path fill="#FF6E86" d="M722,272c14,0,39-6,46-17c-17-10-33,8-49,12" style="fill: rgb(246, 205, 97);"/>
		</g>
		<g>
			<path fill="#FF6E86" d="M408,630c0,10-13,32-7,40c10,14,15-7,14-15c-1-9-7-16-8-25" style="fill: rgb(246, 205, 97);"/>
		</g>
		<g>
			<path fill="#FF6E86" d="M227,216c-2-19-29-66-48-66c-24,0-6,27,3,36c13,15,29,21,44,31" style="fill: rgb(246, 205, 97);"/>
		</g>
		<g>
			<path fill="#FF6E86" d="M511.114,609.595c3,9,7.5,15,16.499,16.5c-1.5-6-6-15-9-17.999" style="fill: rgb(246, 205, 97);"/>
		</g>
	</g>
	<path fill="#FFFFFF" d="M170.198,742.233c-1.404-1.575-1.06-4.233-1.061-6.233s-3.001-2-3,0c0.001,3-0.126,6.141,1.939,8.457&#10;&#9;&#9;C169.367,745.904,171.481,743.672,170.198,742.233z" style="fill: rgb(246, 205, 97);"/>
	<path fill="#FFFFFF" d="M179.583,725.488c0.573-1.854-2.323-2.64-2.893-0.797c-1.257,4.065-2.572,11.311,0.386,14.959&#10;&#9;&#9;c1.219,1.504,3.328-0.633,2.121-2.121c-0.981-1.211-0.695-3.853-0.676-5.289C178.551,729.951,178.908,727.674,179.583,725.488z" style="fill: rgb(246, 205, 97);"/>
	<path fill="#FFFFFF" d="M187.521,717.968c0.384-2.591,1.017-5.255,1.116-7.877c0.073-1.936-2.927-1.929-3,0&#10;&#9;&#9;c-0.149,3.939-1.179,7.933-1.669,11.846c-0.148,1.179-0.639,3.091,0.017,4.211c0.764,1.303,2.33,0.826,2.948-0.301&#10;&#9;&#9;c0.354-0.647,0.196-1.266-0.186-1.691c0.027-0.431,0.069-0.861,0.113-1.287C187.029,721.229,187.279,719.598,187.521,717.968z" style="fill: rgb(246, 205, 97);"/>
	<path fill="#FFFFFF" d="M193.137,695c-0.002,7-0.157,13.808-1.446,20.646c-0.357,1.89,2.534,2.674,2.893,0.773&#10;&#9;&#9;c1.339-7.098,1.551-14.42,1.554-21.42C196.137,693,193.137,693,193.137,695z" style="fill: rgb(246, 205, 97);"/>
	<path fill="#FFFFFF" d="M202.136,689.092c-0.153,6.513-1.347,12.986-1.5,19.499c-0.045,1.936,2.955,1.932,3,0&#10;&#9;&#9;c0.153-6.513,1.347-12.986,1.5-19.499C205.182,687.156,202.182,687.16,202.136,689.092z" style="fill: rgb(246, 205, 97);"/>
	<path fill="#FFFFFF" d="M215.431,681.04c-0.783-1.766-3.367-0.136-2.591,1.616c1.852,4.178,1.294,9.344,1.295,14.344c0,2,3,2,3,0&#10;&#9;&#9;C217.134,691,217.545,685.811,215.431,681.04z" style="fill: rgb(246, 205, 97);"/>
	<path fill="#FFFFFF" d="M226.135,668c-0.002,6-0.179,10.812-1.446,16.146c-0.447,1.881,2.446,2.656,2.893,0.774&#10;&#9;&#9;c1.329-5.595,1.552-10.921,1.554-16.921C229.136,666,226.136,666,226.135,668z" style="fill: rgb(246, 205, 97);"/>
	<path fill="#FFFFFF" d="M241.134,656.094c-0.1,3.542-1.431,6.919-1.5,10.499c-0.037,1.936,2.963,1.932,3,0&#10;&#9;&#9;c0.069-3.578,1.399-6.941,1.5-10.499C244.189,654.158,241.189,654.163,241.134,656.094z" style="fill: rgb(246, 205, 97);"/>
	<path fill="#FFFFFF" d="M296.579,309.157c-1.33-4.289-1.444-8.157-1.446-13.157c-0.001-2-3.001-2-3,0&#10;&#9;&#9;c0.002,5,0.146,9.389,1.554,13.927C294.257,311.768,297.153,311.011,296.579,309.157z" style="fill: rgb(246, 205, 97);"/>
	<path fill="#FFFFFF" d="M304.336,298.356c-1.349,2.896-1.656,6.116-3,9c-0.812,1.742,1.774,3.266,2.591,1.514&#10;&#9;&#9;c1.349-2.896,1.656-6.115,3-8.999C307.739,298.129,305.153,296.604,304.336,298.356z" style="fill: rgb(246, 205, 97);"/>
	<path fill="#FFFFFF" d="M313.131,294.614c-0.104,3.062-1.396,5.925-1.5,9c-0.066,1.936,2.935,1.929,3,0&#10;&#9;&#9;c0.104-3.062,1.396-5.925,1.5-9C316.197,292.679,313.197,292.685,313.131,294.614z" style="fill: rgb(246, 205, 97);"/>
	<path fill="#FFFFFF" d="M330.926,304.299c-1.557-3.438-1.293-7.299-1.295-11.299c-0.001-2-3.001-2-3,0&#10;&#9;&#9;c0.002,4-0.103,8.792,1.705,12.784C329.132,307.545,331.717,306.047,330.926,304.299z" style="fill: rgb(246, 205, 97);"/>
	<path fill="#FFFFFF" d="M346.129,293.114c-0.002,2.76-0.114,5.698-1.295,8.242c-0.809,1.743,1.777,3.268,2.591,1.515&#10;&#9;&#9;c1.417-3.055,1.702-6.428,1.704-9.757C349.131,291.18,346.131,291.18,346.129,293.114z" style="fill: rgb(246, 205, 97);"/>
	<path fill="#FFFFFF" d="M359.629,294.614c-0.038,0.705-0.49,1.373-0.791,1.993c-0.393,0.809-0.661,1.605-0.709,2.507&#10;&#9;&#9;c-0.104,1.934,2.897,1.924,3,0c0.038-0.705,0.49-1.374,0.791-1.993c0.393-0.809,0.661-1.605,0.709-2.507&#10;&#9;&#9;C362.732,292.68,359.732,292.69,359.629,294.614z" style="fill: rgb(246, 205, 97);"/>
	<path fill="#FFFFFF" d="M355.685,429.589c-5.263-9.969-17-15.508-26.809-19.839c-12.688-5.603-25.951-9.835-38.403-15.983&#10;&#9;&#9;c-10.644-5.255-21.875-12.625-24.908-24.851c-0.221-0.891-0.361-1.799-0.49-2.708c-0.271-1.909-3.161-1.094-2.893,0.798&#10;&#9;&#9;c3.583,25.248,36.58,33.833,56.438,41.711c11.067,4.39,23.524,9.123,31.612,18.268c9.356,10.58,4.184,24.323-2.403,34.86&#10;&#9;&#9;c-1.028,1.646,1.568,3.15,2.591,1.514C356.704,453.307,361.667,440.921,355.685,429.589z" style="fill: rgb(246, 205, 97);"/>
	<path fill="#FFFFFF" d="M367.881,426.808c-1.636-1.045-3.139,1.552-1.515,2.591c1.904,1.216,2.172,4.481,2.347,6.488&#10;&#9;&#9;c0.291,3.353-0.387,6.685-1.536,9.816c-0.668,1.82,2.232,2.598,2.893,0.798C372.014,441.205,373.708,430.532,367.881,426.808z" style="fill: rgb(246, 205, 97);"/>
	<path fill="#FFFFFF" d="M386.569,427.705c-0.321-1.904-3.212-1.094-2.893,0.798c1.197,7.1-1.534,13.592-7.114,18.04&#10;&#9;&#9;c-1.513,1.206,0.625,3.314,2.121,2.121C385.149,443.51,387.937,435.814,386.569,427.705z" style="fill: rgb(246, 205, 97);"/>
	<path fill="#FFFFFF" d="M398.622,431.104c-0.035,2.64-0.355,5.287-0.618,7.911c-0.19,1.901-0.115,4.271-0.63,6.193&#10;&#9;&#9;c-0.167,0.228-0.266,0.525-0.251,0.895c0.013,0.326,0.06,0.583,0.22,0.871c0.671,1.213,2.323,0.803,2.742-0.358&#10;&#9;&#9;c0.676-1.874,0.58-4.364,0.789-6.325c0.323-3.043,0.709-6.124,0.75-9.187C401.647,429.168,398.647,429.17,398.622,431.104z" style="fill: rgb(246, 205, 97);"/>
	<path fill="#FFFFFF" d="M415.175,432.204c-1.515,6.048-3.128,12.004-5.849,17.642c-0.836,1.734,1.75,3.256,2.591,1.514&#10;&#9;&#9;c2.833-5.872,4.572-12.052,6.151-18.357C418.538,431.125,415.645,430.329,415.175,432.204z" style="fill: rgb(246, 205, 97);"/>
	<path fill="#FFFFFF" d="M428.62,437.103c-0.1,3.542-1.431,6.919-1.5,10.5c-0.037,1.936,2.963,1.932,3,0&#10;&#9;&#9;c0.069-3.578,1.399-6.942,1.5-10.5C431.675,435.167,428.675,435.173,428.62,437.103z" style="fill: rgb(246, 205, 97);"/>
</g>
<g>
	<path opacity="0.2" fill="#A39696" d="M802.696,1060.666c-24.731-10.717-50.095-18.546-76.085-25.547&#10;&#9;&#9;c-22.846-6.154-45.814-12.132-67.785-21.006c-4.635-2.001-9.263-4.016-13.919-5.971c2.508,1.059,5.017,2.116,7.525,3.175&#10;&#9;&#9;c-31.279-13.526-60.733-36.045-96.657-32.96c-8.616,0.74-15.984,2.936-22.274,9.227c-5.881,5.88-9.226,13.952-9.226,22.273&#10;&#9;&#9;c0,13.053,9.492,26.67,22.247,30.52c-7.288,7.765-12.751,17.682-14.277,27.395c-1.599,10.176-1.259,17.845,0.675,28.091&#10;&#9;&#9;c0.543,2.881,1.257,5.722,1.896,8.579c-0.056,0.056-0.116,0.106-0.172,0.161c-1.361,0.849-2.76,1.628-4.193,2.352&#10;&#9;&#9;c-6.163,2.173-12.544,3.619-18.997,4.663c-21.745,2.377-43.783,1.401-65.553-0.571c-0.436-0.157-0.873-0.311-1.306-0.474&#10;&#9;&#9;c-10.454-4.739-20.567-10.096-31.391-14.088c-14.174-5.229-30.071-5.668-44.665-2.044c-8.041,1.997-15.038,5.716-21.721,9.972&#10;&#9;&#9;c-1.592-7.476-4.237-14.701-8.238-21.187c-3.307-5.36-6.902-10.931-11.612-15.155c-6.872-6.163-12.954-9.068-21.498-12.344&#10;&#9;&#9;c-4.896-1.877-10.09-2.685-15.177-3.885c-1.896-6.891-3.039-14.066-4.021-21.154c-2.069-15.689-3.138-31.669-6.153-47.206&#10;&#9;&#9;c0.101,0.751,0.202,1.502,0.303,2.253c-0.744-4.831-1.599-9.785-1.664-14.611c0.23-0.721,0.486-1.436,0.764-2.147&#10;&#9;&#9;c1.762-4.026,3.717-8.082,6.032-11.564c4.049-4.949,8.193-9.801,11.972-14.998c4.877-6.709,7.875-15.136,9.596-23.191&#10;&#9;&#9;c3.583-16.776-4.739-34.001-22.001-38.749c-15.814-4.35-35.161,5.205-38.749,22.001c-0.352,1.648-0.761,3.266-1.237,4.864&#10;&#9;&#9;c-0.468,0.826-0.961,1.638-1.485,2.433c-1.433,1.701-2.879,3.391-4.29,5.11c-5.112,6.23-8.832,12.098-12.391,19.168&#10;&#9;&#9;c-3.684,7.316-8.002,14.957-9.694,23.002c-3.259,15.498,0.448,31.754,2.781,47.245c2.605,20.964,4.285,42.187,9.222,62.748&#10;&#9;&#9;c1.544,6.432,3.937,12.34,6.609,18.408c3.701,8.406,10.842,14.286,18.208,19.369c9.168,6.325,19.861,7.333,30.098,10.232&#10;&#9;&#9;c0.215,0.358,0.427,0.718,0.633,1.081c0.274,0.948,0.519,1.904,0.732,2.868c0.672,11.631-1.217,23.225-1.308,34.868&#10;&#9;&#9;c-0.132,16.95,14.428,31.793,31.5,31.5c15.748-0.271,30.466-5.453,43.67-13.858c8.025-5.108,15.386-11.235,23.809-15.657&#10;&#9;&#9;c0.921-0.293,1.852-0.556,2.79-0.788c0.979-0.028,1.958-0.026,2.938,0.007c2.962,0.682,5.854,1.584,8.713,2.639&#10;&#9;&#9;c13.345,6.203,26.295,14.184,41.091,15.657c7.019,0.699,14.045,1.302,21.084,1.756c18.147,1.17,36.479,1.372,54.555-0.842&#10;&#9;&#9;c23.473-2.876,45.99-8.317,64.127-24.469c4.134-3.681,7.542-8.377,10.445-13.049c5.658-9.103,7.556-17.302,8.936-27.725&#10;&#9;&#9;c1.126-8.513-1.337-17.073-3.277-25.503c1.184-0.292,2.378-0.548,3.579-0.775c7.936-0.715,15.917-0.663,23.88-0.387&#10;&#9;&#9;c7.007,0.242,14.316,0.167,21.376,0.781c48.908,8.473,92.111,38.977,143.329,36.207c14.1-0.763,26.506-9.061,30.375-23.126&#10;&#9;&#9;C820.574,1083.872,815.443,1066.189,802.696,1060.666z M286.177,1030.003c-0.336-2.446-0.654-4.88-0.979-7.286&#10;&#9;&#9;C285.523,1025.146,285.85,1027.574,286.177,1030.003z" style="fill: rgb(254, 138, 113);"/>
	<g>
		<g>
			<path fill="#4549D0" d="M353.629,1154.074c0,19.499-7.5,35.998-6,56.997c14.999-17.999,7.5-40.498,7.5-61.497" style="fill: rgb(254, 138, 113);"/>
		</g>
		<g>
			<path fill="#4549D0" d="M560.619,1131.575c6,16.499,12,34.498,15,50.997c3,16.499-3,64.497,16.499,71.996&#10;&#9;&#9;&#9;&#9;c28.499,12-1.5-44.997-3-53.997c-6-32.998-7.5-49.497-31.499-76.496" style="fill: rgb(254, 138, 113);"/>
		</g>
		<g>
			<path fill="#4549D0" d="M572.619,1109.076c7.5,4.5,13.5,13.499,23.999,16.499c0-10.499-10.499-20.999-20.999-23.999" style="fill: rgb(254, 138, 113);"/>
		</g>
		<g>
			<path fill="#4549D0" d="M502.122,1157.074c-1.5,11.999-9,25.498-1.5,34.498c6-9,3-28.499-3-38.998" style="fill: rgb(254, 138, 113);"/>
		</g>
		<g>
			<path fill="#4549D0" d="M826.105,1056.578c-14.999-19.498-86.995-22.498-110.994-31.498&#10;&#9;&#9;&#9;&#9;c-32.999-10.499-77.996-14.999-106.495-32.998c-26.999-16.499-16.5-34.498,12-37.498c-37.498-4.5-23.999-34.498-15-55.497&#10;&#9;&#9;&#9;&#9;c-31.499-10.5-29.999-35.999-44.998-59.997c-16.499-26.999-41.998-47.998-73.497-53.998&#10;&#9;&#9;&#9;&#9;c-32.998-5.999-113.994-22.498-133.493,10.5l-3,4.5c-58.497,8.999-97.495,79.496-137.993,116.994&#10;&#9;&#9;&#9;&#9;c-7.5,7.499-37.498,31.498-20.999,41.998c14.999,10.499,29.998-23.999,35.998-31.499c13.499-14.999,28.499-22.499,25.499,4.5&#10;&#9;&#9;&#9;&#9;c-3,14.999-23.999,34.498-32.998,46.497c-28.499,37.499-65.997,79.496-68.997,127.494c28.499,6,41.998-52.497,53.997-71.996&#10;&#9;&#9;&#9;&#9;c9-13.5,53.998-98.995,53.998-43.498c-1.5,17.999-32.999,89.995-6,97.495c16.5,4.5,23.999-23.999,41.998-9&#10;&#9;&#9;&#9;&#9;c10.5,9,9,43.498,9,56.997c0,35.999-3,74.997,4.5,110.995c23.999,4.5,16.499-73.497,17.999-86.996&#10;&#9;&#9;&#9;&#9;c3-10.499,9-34.498,22.499-37.498c14.999-1.5,20.999,20.999,35.998,22.499c14.999,0,14.999-17.999,25.499-3&#10;&#9;&#9;&#9;&#9;c6,7.5,1.5,25.499-1.5,32.998c13.5-8.999,10.5-26.998,20.999-34.498c17.999-14.999,13.5,12,20.999,23.999&#10;&#9;&#9;&#9;&#9;c15-7.5,13.5-28.499,28.499-37.498c14.999-9,31.499-1.5,46.498-17.999c13.5-14.999,13.5-32.998,35.999-37.498&#10;&#9;&#9;&#9;&#9;c20.999-4.5,37.498,16.499,55.497,25.498c6,3,47.998,22.499,52.497,7.5c4.5-14.999-46.498-20.999-53.997-23.999&#10;&#9;&#9;&#9;&#9;c-37.498-10.499-62.997-58.497-9-64.496c41.998-4.5,82.496,35.998,119.994,49.497c20.999,9,43.498,17.999,65.997,20.999&#10;&#9;&#9;&#9;&#9;C809.606,1086.577,844.105,1079.077,826.105,1056.578z M320.631,830.091c0-9,88.496-28.499,97.495-26.999l7.5,4.5&#10;&#9;&#9;&#9;&#9;C433.125,830.091,320.631,834.591,320.631,830.091z" style="fill: rgb(254, 138, 113);"/>
		</g>
		<g>
			<path fill="#4549D0" d="M557.619,800.093c10.5,11.999,17.999,25.498,35.998,22.499c-3-13.5-22.499-16.5-32.998-22.499" style="fill: rgb(254, 138, 113);"/>
		</g>
	</g>
	<path fill="#FFFFFF" d="M741.049,1051.013c-1.738,1.818-2.767,4.187-4.5,6c-1.336,1.397,0.782,3.522,2.121,2.121&#10;&#9;&#9;c1.738-1.818,2.767-4.187,4.5-6C744.506,1051.736,742.388,1049.611,741.049,1051.013z" style="fill: rgb(254, 138, 113);"/>
	<path fill="#FFFFFF" d="M755.609,1056.573c-0.808,0-1.413,0.632-1.488,1.405c-0.014,0.006-0.033,0.014-0.042,0.017&#10;&#9;&#9;c-0.064,0.016-0.129,0.027-0.194,0.039c0.089-0.022-0.083,0.021-0.096,0.022c-0.327,0.021-0.788,0.017-0.788,0.017&#10;&#9;&#9;c-2,0.001-2,3.001,0,3c0,0,1.627,0.021,2.446-0.311c1.18-0.479,1.712-1.416,1.76-2.689&#10;&#9;&#9;C757.238,1057.256,756.403,1056.573,755.609,1056.573z" style="fill: rgb(254, 138, 113);"/>
	<path fill="#FFFFFF" d="M298.336,881.825c-0.377,0.727-0.645,1.648-1.462,1.976c-0.946,0.379-1.875,0.281-2.875,0.281&#10;&#9;&#9;c-2,0.001-2,3.001,0,3c1-0.001,2.605,0.039,3.88-0.472c1.521-0.608,2.401-1.851,3.139-3.271&#10;&#9;&#9;C301.909,881.625,299.229,880.107,298.336,881.825z" style="fill: rgb(254, 138, 113);"/>
	<path fill="#FFFFFF" d="M308.631,893.081c-3.997,0.111-7.267,2.224-10.06,4.939c-1.389,1.351,0.734,3.47,2.121,2.121&#10;&#9;&#9;c2.207-2.146,4.759-3.973,7.939-4.061C310.562,896.027,310.567,893.027,308.631,893.081z" style="fill: rgb(254, 138, 113);"/>
	<path fill="#FFFFFF" d="M306.071,899.521l-4.5,4.5c-1.369,1.369,0.752,3.49,2.121,2.121l4.5-4.5&#10;&#9;&#9;C309.561,900.272,307.44,898.151,306.071,899.521z" style="fill: rgb(254, 138, 113);"/>
	<path fill="#FFFFFF" d="M312.374,906.786c-2.99,1.896-6.22,2.79-9.743,2.795c-1.935,0.003-1.935,3.003,0,3&#10;&#9;&#9;c4.027-0.006,7.843-1.04,11.256-3.205C315.516,908.344,314.013,905.746,312.374,906.786z" style="fill: rgb(254, 138, 113);"/>
	<path fill="#FFFFFF" d="M310.874,914.285c-3.427,1.666-7.072,2.833-10.5,4.5c-1.739,0.846-0.218,3.433,1.515,2.59&#10;&#9;&#9;c3.427-1.666,7.071-2.833,10.499-4.5C314.127,916.029,312.606,913.442,310.874,914.285z" style="fill: rgb(254, 138, 113);"/>
	<path fill="#FFFFFF" d="M307.874,924.785c-1.958,0.943-4.05,1.576-6.05,2.423c-1.304,0.552-3.393,1.341-3.639,2.974&#10;&#9;&#9;c-0.286,1.892,2.605,2.705,2.893,0.797c0.081-0.537,2.658-1.333,3.215-1.548c1.709-0.659,3.443-1.259,5.096-2.056&#10;&#9;&#9;C311.131,926.535,309.608,923.949,307.874,924.785z" style="fill: rgb(254, 138, 113);"/>
	<path fill="#FFFFFF" d="M313.874,932.284c-3.597,1.799-7.821,3.469-10.803,6.234c-1.421,1.317,0.705,3.435,2.121,2.121&#10;&#9;&#9;c2.76-2.559,6.863-4.099,10.196-5.766C317.119,934.009,315.599,931.421,313.874,932.284z" style="fill: rgb(254, 138, 113);"/>
	<path fill="#FFFFFF" d="M316.874,941.284c-2.596,1.319-5.077,2.888-7.5,4.5c-1.603,1.065-0.102,3.665,1.514,2.59&#10;&#9;&#9;c2.423-1.612,4.904-3.18,7.5-4.5C320.113,942.997,318.594,940.409,316.874,941.284z" style="fill: rgb(254, 138, 113);"/>
	<path fill="#FFFFFF" d="M316.131,945.579c-0.84,0-1.47,0.683-1.5,1.5c-0.024,0.667-0.833,1.476-1.5,1.5&#10;&#9;&#9;c-0.817,0.03-1.5,0.66-1.5,1.5c0,0.795,0.683,1.53,1.5,1.5c2.397-0.088,4.412-2.103,4.5-4.5&#10;&#9;&#9;C317.661,946.262,316.926,945.579,316.131,945.579z" style="fill: rgb(254, 138, 113);"/>
	<path fill="#FFFFFF" d="M373.182,1053.175c-1.537,5.668-4.532,11.558-8.614,15.837c-1.334,1.398,0.784,3.523,2.121,2.121&#10;&#9;&#9;c4.445-4.659,7.708-10.975,9.385-17.161C376.582,1052.102,373.688,1051.31,373.182,1053.175z" style="fill: rgb(254, 138, 113);"/>
	<path fill="#FFFFFF" d="M382.127,1059.573c-0.101,2.023-1.307,4.059-2.232,5.805c-0.931,1.757-1.958,3.673-3.328,5.134&#10;&#9;&#9;c-1.322,1.409,0.795,3.535,2.121,2.121c1.559-1.662,2.711-3.756,3.797-5.74c1.212-2.218,2.514-4.748,2.642-7.319&#10;&#9;&#9;C385.224,1057.639,382.224,1057.648,382.127,1059.573z" style="fill: rgb(254, 138, 113);"/>
	<path fill="#FFFFFF" d="M391.332,1063.316c-2.014,3.023-7.28,9.615-2.461,12.551c1.657,1.01,3.163-1.586,1.514-2.59&#10;&#9;&#9;c-1.999-1.218,2.727-7.229,3.539-8.447C394.998,1063.215,392.398,1061.715,391.332,1063.316z" style="fill: rgb(254, 138, 113);"/>
	<path fill="#FFFFFF" d="M406.331,1066.316c-2.98,3.884-11.697,10.857-5.461,15.551c1.547,1.165,3.04-1.442,1.515-2.59&#10;&#9;&#9;c-2.087-1.571,0.639-4.295,1.748-5.645c1.594-1.939,3.26-3.809,4.79-5.803C410.099,1066.295,407.491,1064.804,406.331,1066.316z" style="fill: rgb(254, 138, 113);"/>
	<path fill="#FFFFFF" d="M420.065,1066.013c-3.706,3.708-15.558,13.997-7.196,18.854c1.676,0.975,3.186-1.619,1.514-2.59&#10;&#9;&#9;c-4.972-2.889,5.596-11.934,7.803-14.144C423.555,1066.765,421.434,1064.643,420.065,1066.013z" style="fill: rgb(254, 138, 113);"/>
	<path fill="#FFFFFF" d="M436.329,1070.815c-0.969,1.973-1.831,3.997-2.74,5.997c-0.842,1.852-1.644,4.167-3.025,5.699&#10;&#9;&#9;c-1.292,1.433,0.823,3.561,2.121,2.121c2.996-3.321,4.289-8.343,6.234-12.304C439.769,1070.6,437.182,1069.079,436.329,1070.815z" style="fill: rgb(254, 138, 113);"/>
	<path fill="#FFFFFF" d="M449.624,1079.072c-0.072,1.327-1.702,2.58-2.561,3.439c-1.369,1.369,0.753,3.491,2.121,2.121&#10;&#9;&#9;c1.552-1.554,3.312-3.234,3.439-5.561C452.729,1077.139,449.729,1077.148,449.624,1079.072z" style="fill: rgb(254, 138, 113);"/>
	<path fill="#FFFFFF" d="M516.677,833.523c-12.325-10.062-26.481-16.536-42.507-17.196c-15.182-0.625-30.117,4.16-44.173,9.362&#10;&#9;&#9;c-30.945,11.452-62.434,26.634-95.472,13.447c-1.798-0.718-2.572,2.185-0.798,2.893c30.567,12.201,60.526,0.707,89.388-10.518&#10;&#9;&#9;c14.316-5.566,29.003-11.04,44.461-12.088c17.495-1.186,33.557,5.263,46.98,16.221&#10;&#9;&#9;C516.041,836.856,518.177,834.747,516.677,833.523z" style="fill: rgb(254, 138, 113);"/>
	<path fill="#FFFFFF" d="M507.678,845.522c-9.324-7.774-19.616-16.578-32.559-15.438c-1.912,0.168-1.928,3.17,0,3&#10;&#9;&#9;c12.127-1.068,21.715,7.288,30.438,14.56C507.031,848.873,509.166,846.763,507.678,845.522z" style="fill: rgb(254, 138, 113);"/>
	<path fill="#FFFFFF" d="M497.178,851.522c-6.256-6.098-13.278-9.291-22.059-9.439c-1.936-0.033-1.933,2.967,0,3&#10;&#9;&#9;c8.005,0.136,14.238,3.006,19.938,8.561C496.442,854.994,498.565,852.875,497.178,851.522z" style="fill: rgb(254, 138, 113);"/>
	<path fill="#FFFFFF" d="M486.375,863.287c-3.747-2.54-7.003-5.574-10.195-8.766c-1.369-1.369-3.491,0.752-2.121,2.121&#10;&#9;&#9;c3.374,3.373,6.844,6.551,10.803,9.234C486.467,866.966,487.967,864.365,486.375,863.287z" style="fill: rgb(254, 138, 113);"/>
	<path fill="#FFFFFF" d="M477.376,873.786c-2.076-1.058-3.71-2.207-3.757-4.704c-0.037-1.932-3.037-1.936-3,0&#10;&#9;&#9;c0.067,3.583,2.189,5.738,5.242,7.294C477.582,877.252,479.1,874.664,477.376,873.786z" style="fill: rgb(254, 138, 113);"/>
</g>
<g>
	<path opacity="0.2" fill="#A39696" d="M1597.25,1049.488c-4.396-15.98-22.417-27.307-38.749-22.001&#10;&#9;&#9;c-7.173,2.33-14.474,4.01-21.893,5.219c-26.552,2.863-53.34,0.81-79.97,2.394c-12.314,0.732-24.844,2.196-36.852,5.064&#10;&#9;&#9;c-8.351,1.994-17.206,5.131-24.146,10.249c-7.609,5.61-14.681,11.892-18.692,20.713c-3.299,7.254-5.514,13.807-6.78,21.572&#10;&#9;&#9;c-0.794,4.868-1.591,9.688-2.499,14.463c-26.852-3.615-54.43-0.5-80.78,6.285c-22.124,5.696-43.416,14.005-64.756,22.145&#10;&#9;&#9;c-0.551-0.333-1.101-0.666-1.65-1c1.267-1.734,2.58-3.216,3.889-4.911c-1.313,1.701-2.627,3.32-3.94,5.32h-0.002&#10;&#9;&#9;c7.927-11,14.514-19.706,19.473-31.93c5.145-12.681,5.025-28.697,0.313-41.471c-3.579-9.702-10.836-20.182-22.001-22.057&#10;&#9;&#9;c-13.918-2.336-27.784-3.683-41.889-3.212c-13.975,0.467-27.937,2.479-41.722,4.688c-22.084,3.539-43.863,8.739-65.988,12.027&#10;&#9;&#9;c-16.194,1.914-32.459,2.496-48.683,0.785c-3.938-0.65-7.848-1.43-11.74-2.341c-16.704-3.909-34.066,4.979-38.749,22&#10;&#9;&#9;c-4.417,16.061,5.284,34.835,22.001,38.749c30.983,7.25,61.247,6.142,92.467,1.771c24.491-3.428,48.531-9.446,72.983-13.104&#10;&#9;&#9;c3.811-0.45,7.625-0.824,11.442-1.103c-2.927,3.936-5.677,7.969-7.982,12.256c-4.335,0.196-8.82,0.96-13.062,2.435&#10;&#9;&#9;c-13.368,4.646-23.293,15.657-23.293,30.375v3c0,10.528,6.031,22.336,15.769,27.199c8.611,4.301,17.501,8.551,26.753,11.271&#10;&#9;&#9;c0.322,0.095,0.687,0.176,1.009,0.265c4.769,16.561,22.152,25.84,38.662,21.644c4.171-1.06,8.312-2.244,12.418-3.513&#10;&#9;&#9;c9.594,3.845,19.558,6.519,30.229,7.638c7.572,0.794,15.033,1.151,22.614,0.25c11.88-1.413,21.309-3.948,32.266-8.684&#10;&#9;&#9;c11.936-5.159,22.146-13.574,32.314-21.579c6.354-4.796,12.856-9.338,19.691-13.408c0.858,0.067,1.717,0.143,2.576,0.227&#10;&#9;&#9;c7.892,1.356,15.611,3.373,23.183,6.066c7.679,2.731,17.433,0.831,24.272-3.176c7.714-4.519,11.237-10.854,14.477-18.825&#10;&#9;&#9;c4.394-10.812,7.245-22,9.104-33.505c0.944-5.837,1.525-11.882,2.979-17.662c4.396-1.359,8.931-2.268,13.482-2.992&#10;&#9;&#9;c43.135-4.805,87.381,2.819,129.45-10.849C1591.564,1082.937,1601.96,1066.612,1597.25,1049.488z"/>
	<g>
		<g>
			<path fill="#92B7FD" d="M1175.078,1029.573c-7.5-22.499-34.498-13.5-49.498-25.499c-41.997-31.498,59.997-4.5,70.497-23.999&#10;&#9;&#9;&#9;&#9;c19.499-31.498-43.498-65.996-47.998-92.995c-2.999-23.999,12-25.499,25.499-9c13.499,15,13.499,35.999,26.999,52.498&#10;&#9;&#9;&#9;&#9;c10.499,11.999,34.498,29.998,35.998,1.5c1.5-19.499-22.499-28.499-35.998-35.999c19.499,4.5,34.498,23.999,53.997,28.499&#10;&#9;&#9;&#9;&#9;c26.998,6,17.999-20.999,37.498-23.999c23.999-3,13.499,28.499,29.998,34.498c19.5,6,31.499-20.998,35.999-34.498&#10;&#9;&#9;&#9;&#9;c-6,14.999-19.499,50.998,4.499,56.997c16.5,4.5,41.998-23.998,53.998-31.498c19.499-11.999,40.498-20.999,59.996-34.498&#10;&#9;&#9;&#9;&#9;c16.5-10.5,31.499-28.499,49.498-37.498c25.499-12,34.498,0,14.999,20.999c-14.999,14.999-32.998,23.998-52.497,32.998&#10;&#9;&#9;&#9;&#9;c-31.498,14.999-64.497,28.498-97.495,43.498c-19.499,10.499-32.998,25.498-3,31.498c13.499,1.5,32.998-6,47.998-6&#10;&#9;&#9;&#9;&#9;c-16.499,9-88.496,32.999-37.499,50.998c21,5.999,55.498-4.5,77.996-4.5c28.499,0,59.998,0,88.496,4.5&#10;&#9;&#9;&#9;&#9;c61.497,13.499,20.999,40.498-20.999,35.998c-32.998-3-64.497-14.999-97.495-14.999c-16.499,0-50.997-3-52.497,17.999&#10;&#9;&#9;&#9;&#9;c-1.5,16.499,19.499,23.998,16.499,43.497c-13.499-1.499-73.496-22.498-50.998,16.5c-1.499-1.5-8.999-4.5-10.499-4.5&#10;&#9;&#9;&#9;&#9;c-8.999,6-13.499-1.5-20.999,8.999c-3,6-1.5,17.999-3,23.999c-1.5,16.499,1.5,35.998-20.999,29.999&#10;&#9;&#9;&#9;&#9;c-16.499-4.5-22.499-31.499-38.998-38.998c-13.499-6-38.998-1.5-52.497,2.999c-11.999,4.5-38.998,32.999-52.497,19.499&#10;&#9;&#9;&#9;&#9;c-16.499-17.999,19.499-34.498,29.998-41.997c46.498-31.499-5.999-40.498-37.498-28.499c16.499-4.5,35.998-7.5,41.998-25.499&#10;&#9;&#9;&#9;&#9;c10.499-25.498-6-28.498-25.499-23.998c-34.498,5.999-67.496,25.498-101.994,31.498c-34.499,7.5-70.497,17.999-104.995,7.5&#10;&#9;&#9;&#9;&#9;c-55.497-13.5,8.999-43.498,34.498-47.998c61.497-14.999,122.994,4.5,181.491-3L1175.078,1029.573z"/>
		</g>
		<g>
			<path fill="#92B7FD" d="M1392.566,1134.57c32.999,20.999,58.497,61.497,94.496,77.996c-1.5-26.998-76.497-58.497-92.996-83.996"/>
		</g>
		<g>
			<path fill="#92B7FD" d="M1238.074,1199.067c-11.999,16.499-25.498,34.498-22.499,56.997c28.499,1.5,25.499-47.998,23.999-65.997"/>
		</g>
		<g>
			<path fill="#92B7FD" d="M1400.066,885.583c3-9,9-13.499,17.999-14.999c-1.5,8.999-5.999,8.999-14.999,10.499"/>
		</g>
		<g>
			<path fill="#92B7FD" d="M1358.068,861.584c3-4.5,6-8.999,1.5-14.999c-3,4.5-4.5,10.499-4.5,17.999"/>
		</g>
		<g>
			<path fill="#92B7FD" d="M1100.081,1106.072c-6,1.5-8.999,0-11.999,6c7.499,0,8.999-3,14.999-6"/>
		</g>
		<g>
			<path fill="#92B7FD" d="M1085.082,1005.577c-6-4.5-16.499-4.5-23.999-3c9,4.5,20.999,4.5,31.499,4.5"/>
		</g>
	</g>
	<path fill="#FFFFFF" d="M967.538,1072.012c-1.953,2.112-3.33,5.688-3.439,8.561c-0.074,1.936,2.927,1.928,3,0&#10;&#9;&#9;c0.078-2.052,1.165-4.93,2.56-6.439C970.97,1072.715,968.854,1070.588,967.538,1072.012z"/>
	<path fill="#FFFFFF" d="M979.538,1076.512c-1.813,1.733-4.181,2.762-6,4.5c-1.401,1.339,0.724,3.457,2.121,2.121&#10;&#9;&#9;c1.813-1.733,4.181-2.762,6-4.5C983.06,1077.294,980.935,1075.176,979.538,1076.512z"/>
	<path fill="#FFFFFF" d="M990.341,1076.277c-2.628,1.387-5.132,4.18-5.243,7.294c-0.069,1.936,2.931,1.929,3,0&#10;&#9;&#9;c0.071-1.979,2.095-3.826,3.757-4.704C993.566,1077.964,992.05,1075.375,990.341,1076.277z"/>
	<path fill="#FFFFFF" d="M1001.802,1075.315c-1.439,2.755-3.584,5.015-5.765,7.195c-1.369,1.369,0.752,3.49,2.121,2.121&#10;&#9;&#9;c2.351-2.351,4.684-4.834,6.234-7.803C1005.286,1075.117,1002.697,1073.6,1001.802,1075.315z"/>
	<path fill="#FFFFFF" d="M1015.302,1073.815c-1.775,3.366-4.603,6.031-7.266,8.695c-1.369,1.369,0.752,3.49,2.121,2.121&#10;&#9;&#9;c2.837-2.838,5.844-5.716,7.734-9.303C1018.793,1073.619,1016.204,1072.104,1015.302,1073.815z"/>
	<path fill="#FFFFFF" d="M1027.301,1072.315l-4.5,9c-0.862,1.725,1.725,3.244,2.59,1.514l4.5-9&#10;&#9;&#9;C1030.754,1072.104,1028.166,1070.585,1027.301,1072.315z"/>
	<path fill="#FFFFFF" d="M1044.655,1070.512c-1.212-1.509-3.32,0.629-2.121,2.121c0.313,0.391-0.936,2.362-1.191,2.789&#10;&#9;&#9;c-0.904,1.506-2.084,2.839-3.308,4.09c-1.354,1.383,0.767,3.506,2.121,2.121C1042.472,1079.267,1047.47,1074.016,1044.655,1070.512&#10;&#9;&#9;z"/>
	<path fill="#FFFFFF" d="M1063.299,1064.815c-3,4.5-5.999,9-8.999,13.5c-1.077,1.614,1.522,3.115,2.59,1.514&#10;&#9;&#9;c3-4.5,5.999-9,8.999-13.5C1066.966,1064.715,1064.366,1063.214,1063.299,1064.815z"/>
	<path fill="#FFFFFF" d="M1069.299,1067.815c-1.445,2.824-3.542,4.972-5.766,7.196c-1.369,1.369,0.752,3.49,2.121,2.121&#10;&#9;&#9;c2.394-2.395,4.679-4.763,6.234-7.804C1072.769,1067.61,1070.18,1066.093,1069.299,1067.815z"/>
	<path fill="#FFFFFF" d="M1084.093,1065.572c-0.001,1.337-0.102,2.425-1.061,3.439c-1.328,1.404,0.79,3.529,2.121,2.121&#10;&#9;&#9;c1.515-1.602,1.938-3.413,1.939-5.561C1087.095,1063.638,1084.095,1063.638,1084.093,1065.572z"/>
	<path fill="#FFFFFF" d="M1500,1045v3c0,2,3,2,3,0v-3C1503,1043,1500,1043,1500,1045z"/>
	<path fill="#FFFFFF" d="M1513.071,1050.573c-1.935,0.001-1.935,3.001,0,3c0.869,0,1.687-0.021,2.373-0.627&#10;&#9;&#9;c0.656-0.579,0.627-1.579,0.627-2.373C1516.072,1048.639,1513.072,1048.639,1513.071,1050.573z"/>
	<path fill="#FFFFFF" d="M1525.51,1049.513c-0.266,0.256-0.521,0.463-0.837,0.655c-0.121,0.074-0.249,0.136-0.377,0.197&#10;&#9;&#9;c0.005-0.01-0.233,0.089-0.249,0.094c-0.158,0.054-0.324,0.086-0.488,0.115c-1.921,0.038-1.92,3.023,0.012,2.999&#10;&#9;&#9;c1.536-0.02,2.99-0.907,4.061-1.939C1529.026,1050.289,1526.902,1048.17,1525.51,1049.513z"/>
	<path fill="#FFFFFF" d="M1541.569,1047.573c-2.39,0.13-4.82,1.919-6.756,3.205c-1.604,1.064-0.103,3.664,1.514,2.59&#10;&#9;&#9;c0.722-0.479,1.461-0.931,2.208-1.367c0.614-0.359,1.241-0.696,1.881-1.007c0.236-0.114,0.473-0.211,0.72-0.299&#10;&#9;&#9;c0.087-0.031,0.698-0.137,0.434-0.122C1543.493,1050.469,1543.503,1047.468,1541.569,1047.573z"/>
	<path fill="#FFFFFF" d="M1552.274,1048.316c-1.478,2.764-4.271,4.114-6.962,5.462c-1.73,0.866-0.211,3.453,1.514,2.59&#10;&#9;&#9;c3.162-1.582,6.312-3.306,8.038-6.538C1555.775,1048.125,1553.186,1046.609,1552.274,1048.316z"/>
	<path fill="#FFFFFF" d="M1562.363,1051.33c0.894-1.713-1.695-3.23-2.59-1.514c-1.509,2.895-5.162,7.143-0.962,9.552&#10;&#9;&#9;c1.681,0.965,3.191-1.628,1.514-2.59c-0.977-0.561-0.276-1.445,0.168-2.247C1561.093,1053.449,1561.791,1052.429,1562.363,1051.33z&#10;&#9;&#9;"/>
	<path fill="#FFFFFF" d="M1226.581,971.077c-0.208-1.901-3.21-1.922-3,0c1.155,10.572-0.683,22.213-11.256,27.203&#10;&#9;&#9;c-1.749,0.825-0.226,3.411,1.514,2.59C1225.311,995.457,1227.848,982.67,1226.581,971.077z"/>
	<path fill="#FFFFFF" d="M1241.58,986.076c-0.098,6.506-2.63,12.016-9.397,13.553c-1.887,0.428-1.087,3.32,0.797,2.893&#10;&#9;&#9;c8.068-1.832,11.483-8.64,11.601-16.445C1244.609,984.141,1241.609,984.144,1241.58,986.076z"/>
	<path fill="#FFFFFF" d="M1255.08,999.575c-0.092,4.352-3.562,5.938-7.5,6c-1.933,0.03-1.936,3.03,0,3&#10;&#9;&#9;c5.616-0.089,10.373-2.959,10.5-9C1258.121,997.64,1255.121,997.644,1255.08,999.575z"/>
	<path fill="#FFFFFF" d="M1267.284,1007.818c-2.13,3.038-5.431,5.175-9.204,5.256c-1.932,0.042-1.936,3.042,0,3&#10;&#9;&#9;c4.886-0.105,9.042-2.814,11.794-6.742C1270.987,1007.744,1268.385,1006.247,1267.284,1007.818z"/>
	<path fill="#FFFFFF" d="M1279.283,1013.817c-1.785,3.247-5.583,5.138-9.204,5.257c-1.93,0.063-1.936,3.063,0,3&#10;&#9;&#9;c4.65-0.152,9.5-2.568,11.794-6.743C1282.806,1013.635,1280.215,1012.122,1279.283,1013.817z"/>
	<path fill="#FFFFFF" d="M1283.994,1021.317c-1.286,2.352-3.994,2.255-5.994,2.257c-2,0.001-2,3.001,0,3&#10;&#9;&#9;c3-0.002,6.846-0.372,8.689-3.743C1287.618,1021.134,1284.922,1019.619,1283.994,1021.317z"/>
</g>
</svg>